<svg width="22" height="25" viewBox="0 0 22 25" fill="none" xmlns="http://www.w3.org/2000/svg">
<g filter="url(#filter0_i_81_48)">
<path d="M0 8C0 5.19974 0 3.79961 0.544967 2.73005C1.02433 1.78924 1.78924 1.02433 2.73005 0.544967C3.79961 0 5.19974 0 8 0H12.889C14.1982 1.26873 15.4465 2.48127 16.7557 3.75L20.6224 7.5V16C20.6224 18.8003 20.6224 20.2004 20.0774 21.27C19.598 22.2108 18.8331 22.9757 17.8923 23.455C16.8227 24 15.4226 24 12.6224 24H8C5.19974 24 3.79961 24 2.73005 23.455C1.78924 22.9757 1.02433 22.2108 0.544967 21.27C0 20.2004 0 18.8003 0 16V8Z" fill="url(#paint0_linear_81_48)"/>
<path d="M12.8889 0L17.0134 4L20.6223 7.5C20.6223 7.5 20.6223 7.5 17.6911 7.5C16.0095 7.5 15.1687 7.5 14.5269 7.17302C13.9625 6.8854 13.5035 6.42646 13.2159 5.86197C12.8889 5.22024 12.8889 4.38016 12.8889 2.7L12.8889 0Z" fill="#1D212D"/>
</g>
<path d="M16.2542 22.2662C18.0307 22.2662 19.5104 20.8637 19.5104 19.0856C19.5104 17.3075 18.0307 15.9051 16.2542 15.9051C14.4777 15.9051 12.998 17.3075 12.998 19.0856C12.998 20.8637 14.4777 22.2662 16.2542 22.2662Z" fill="#C5C7CA" stroke="#212223" stroke-width="1.5"/>
<path d="M18.7605 21.5162L21.0001 23.6882" stroke="#212223" stroke-width="1.5" stroke-linecap="round"/>
<path d="M5.15576 11.1111H15.4669" stroke="#343A40" stroke-width="1.5" stroke-linecap="round"/>
<path d="M5.15576 14.4445H12.6027" stroke="#343A40" stroke-width="1.5" stroke-linecap="round"/>
<defs>
<filter id="filter0_i_81_48" x="0" y="0" width="20.6223" height="24" filterUnits="userSpaceOnUse" color-interpolation-filters="sRGB">
<feFlood flood-opacity="0" result="BackgroundImageFix"/>
<feBlend mode="normal" in="SourceGraphic" in2="BackgroundImageFix" result="shape"/>
<feColorMatrix in="SourceAlpha" type="matrix" values="0 0 0 0 0 0 0 0 0 0 0 0 0 0 0 0 0 0 127 0" result="hardAlpha"/>
<feOffset/>
<feGaussianBlur stdDeviation="2"/>
<feComposite in2="hardAlpha" operator="arithmetic" k2="-1" k3="1"/>
<feColorMatrix type="matrix" values="0 0 0 0 0 0 0 0 0 0 0 0 0 0 0 0 0 0 0.8 0"/>
<feBlend mode="normal" in2="shape" result="effect1_innerShadow_81_48"/>
</filter>
<linearGradient id="paint0_linear_81_48" x1="10.3112" y1="0" x2="10.3112" y2="24" gradientUnits="userSpaceOnUse">
<stop offset="0.05" stop-color="#FDFEFF" stop-opacity="0.5"/>
<stop offset="1" stop-color="#999999" stop-opacity="0.5"/>
</linearGradient>
</defs>
</svg>
