<svg width="842" height="595" viewBox="0 0 842 595" fill="none" xmlns="http://www.w3.org/2000/svg">
<g clip-path="url(#clip0_16_101)">
<path d="M302.427 538.292H300.067V530.644H302.532C303.274 530.644 303.909 530.798 304.436 531.104C304.964 531.407 305.369 531.844 305.65 532.414C305.931 532.982 306.072 533.662 306.072 534.453C306.072 535.25 305.93 535.936 305.646 536.511C305.363 537.084 304.949 537.524 304.407 537.833C303.864 538.139 303.204 538.292 302.427 538.292ZM300.993 537.471H302.368C303 537.471 303.524 537.349 303.94 537.105C304.356 536.861 304.666 536.513 304.87 536.063C305.074 535.612 305.176 535.076 305.176 534.453C305.176 533.836 305.075 533.304 304.873 532.859C304.672 532.411 304.371 532.067 303.97 531.828C303.569 531.587 303.07 531.466 302.472 531.466H300.993V537.471Z" fill="black"/>
<path d="M309.836 538.412C309.318 538.412 308.864 538.288 308.473 538.042C308.085 537.796 307.781 537.451 307.562 537.008C307.345 536.564 307.237 536.047 307.237 535.454C307.237 534.857 307.345 534.335 307.562 533.89C307.781 533.444 308.085 533.098 308.473 532.851C308.864 532.605 309.318 532.482 309.836 532.482C310.354 532.482 310.807 532.605 311.196 532.851C311.586 533.098 311.89 533.444 312.107 533.89C312.326 534.335 312.435 534.857 312.435 535.454C312.435 536.047 312.326 536.564 312.107 537.008C311.89 537.451 311.586 537.796 311.196 538.042C310.807 538.288 310.354 538.412 309.836 538.412ZM309.836 537.62C310.23 537.62 310.553 537.519 310.807 537.318C311.061 537.116 311.249 536.851 311.371 536.522C311.493 536.194 311.554 535.838 311.554 535.454C311.554 535.071 311.493 534.714 311.371 534.382C311.249 534.051 311.061 533.784 310.807 533.58C310.553 533.375 310.23 533.273 309.836 533.273C309.443 533.273 309.119 533.375 308.865 533.58C308.611 533.784 308.423 534.051 308.301 534.382C308.179 534.714 308.118 535.071 308.118 535.454C308.118 535.838 308.179 536.194 308.301 536.522C308.423 536.851 308.611 537.116 308.865 537.318C309.119 537.519 309.443 537.62 309.836 537.62Z" fill="black"/>
<path d="M316.111 538.412C315.573 538.412 315.11 538.285 314.722 538.031C314.333 537.777 314.035 537.427 313.825 536.981C313.616 536.536 313.512 536.027 313.512 535.454C313.512 534.872 313.619 534.358 313.833 533.912C314.049 533.464 314.351 533.114 314.737 532.863C315.125 532.609 315.578 532.482 316.096 532.482C316.499 532.482 316.863 532.556 317.186 532.706C317.51 532.855 317.775 533.064 317.982 533.333C318.188 533.602 318.316 533.916 318.366 534.274H317.485C317.418 534.013 317.268 533.781 317.037 533.58C316.808 533.375 316.499 533.273 316.111 533.273C315.767 533.273 315.466 533.363 315.207 533.542C314.951 533.719 314.75 533.969 314.606 534.293C314.464 534.614 314.393 534.991 314.393 535.424C314.393 535.867 314.463 536.253 314.602 536.582C314.744 536.911 314.943 537.166 315.2 537.347C315.459 537.529 315.762 537.62 316.111 537.62C316.34 537.62 316.548 537.58 316.734 537.501C316.921 537.421 317.079 537.306 317.209 537.157C317.338 537.008 317.43 536.828 317.485 536.619H318.366C318.316 536.958 318.193 537.263 317.997 537.534C317.802 537.803 317.545 538.017 317.224 538.176C316.905 538.333 316.534 538.412 316.111 538.412Z" fill="black"/>
<path d="M320.476 536.201L320.461 535.111H320.64L323.15 532.556H324.24L321.567 535.26H321.492L320.476 536.201ZM319.655 538.292V530.644H320.536V538.292H319.655ZM323.299 538.292L321.059 535.454L321.686 534.842L324.42 538.292H323.299Z" fill="black"/>
<path d="M327.543 538.412C326.991 538.412 326.514 538.29 326.113 538.046C325.715 537.799 325.407 537.456 325.191 537.015C324.977 536.572 324.87 536.057 324.87 535.469C324.87 534.882 324.977 534.364 325.191 533.916C325.407 533.465 325.708 533.114 326.094 532.863C326.483 532.609 326.936 532.482 327.454 532.482C327.752 532.482 328.047 532.531 328.339 532.631C328.63 532.731 328.895 532.892 329.134 533.117C329.373 533.338 329.564 533.632 329.705 533.998C329.847 534.364 329.918 534.814 329.918 535.35V535.723H325.497V534.961H329.022C329.022 534.638 328.957 534.349 328.828 534.095C328.701 533.841 328.519 533.641 328.283 533.494C328.049 533.347 327.772 533.273 327.454 533.273C327.103 533.273 326.799 533.36 326.542 533.535C326.289 533.707 326.093 533.931 325.956 534.207C325.819 534.483 325.751 534.78 325.751 535.096V535.604C325.751 536.037 325.825 536.404 325.975 536.705C326.127 537.004 326.337 537.232 326.606 537.389C326.875 537.543 327.187 537.62 327.543 537.62C327.775 537.62 327.984 537.588 328.171 537.523C328.36 537.456 328.523 537.356 328.66 537.224C328.797 537.09 328.903 536.923 328.977 536.724L329.829 536.963C329.739 537.252 329.588 537.506 329.377 537.725C329.165 537.941 328.904 538.11 328.593 538.232C328.281 538.352 327.932 538.412 327.543 538.412Z" fill="black"/>
<path d="M331.259 538.292V532.556H332.11V533.423H332.17C332.275 533.139 332.464 532.909 332.738 532.732C333.011 532.555 333.32 532.467 333.664 532.467C333.728 532.467 333.809 532.468 333.906 532.47C334.004 532.473 334.077 532.477 334.127 532.482V533.378C334.097 533.37 334.028 533.359 333.921 533.344C333.817 533.327 333.706 533.318 333.589 533.318C333.31 533.318 333.061 533.377 332.842 533.494C332.626 533.608 332.454 533.768 332.327 533.972C332.202 534.173 332.14 534.404 332.14 534.663V538.292H331.259Z" fill="black"/>
<rect x="193.5" y="55.5" width="455" height="395.988" rx="0.5" stroke="#232F3E"/>
<rect x="193.385" y="55.3853" width="33.5294" height="34.8706" rx="1" fill="#232F3E"/>
<path d="M225.909 89.2097H194.391V56.4314H225.909V89.2097ZM195.732 87.8149H224.568V57.8262H195.732V87.8149Z" fill="#232F3E"/>
<path d="M204.309 70.5121C204.3 70.7811 204.334 71.0497 204.41 71.3072C204.482 71.5294 204.574 71.7442 204.685 71.9488C204.722 72.0093 204.743 72.0792 204.745 72.151C204.74 72.206 204.722 72.2588 204.693 72.305C204.663 72.3511 204.624 72.3892 204.577 72.416L204.041 72.7857C203.975 72.8368 203.895 72.866 203.813 72.8694C203.764 72.8672 203.717 72.855 203.673 72.8334C203.629 72.8119 203.59 72.7814 203.558 72.7438C203.441 72.6183 203.339 72.4777 203.256 72.3254C203.169 72.1789 203.082 72.0046 202.988 71.8093C202.686 72.1985 202.302 72.5112 201.866 72.7238C201.431 72.9365 200.955 73.0434 200.473 73.0367C200.16 73.057 199.846 73.0113 199.549 72.9022C199.253 72.7932 198.981 72.6231 198.75 72.4021C198.536 72.1756 198.37 71.9057 198.262 71.6093C198.153 71.3128 198.105 70.9963 198.12 70.6795C198.107 70.3334 198.17 69.9889 198.305 69.6722C198.44 69.3556 198.643 69.0751 198.897 68.8523C199.492 68.3607 200.238 68.1126 200.996 68.1549C201.299 68.158 201.602 68.1813 201.902 68.2246C202.217 68.2734 202.572 68.3362 202.887 68.4199V67.7643C202.932 67.2627 202.788 66.7627 202.485 66.3695C202.089 66.0493 201.59 65.8995 201.09 65.951C200.778 65.9535 200.468 65.9933 200.165 66.0696C199.849 66.1475 199.54 66.2501 199.239 66.3765C199.145 66.4232 199.046 66.4606 198.944 66.488C198.9 66.4949 198.855 66.4949 198.81 66.488C198.69 66.488 198.629 66.3904 198.629 66.2091V65.7697C198.621 65.6613 198.642 65.5526 198.69 65.4559C198.753 65.3757 198.834 65.3113 198.924 65.2676C199.273 65.0975 199.637 64.9621 200.011 64.8631C200.449 64.7487 200.9 64.6925 201.352 64.6957C202.157 64.6135 202.962 64.864 203.592 65.3931C203.847 65.6889 204.041 66.0356 204.163 66.412C204.286 66.7885 204.333 67.1869 204.302 67.583L204.309 70.5121ZM200.829 71.8651C201.13 71.8638 201.43 71.8095 201.714 71.7047C202.028 71.5918 202.308 71.3945 202.525 71.1328C202.663 70.97 202.764 70.7769 202.82 70.5679C202.878 70.3143 202.905 70.0543 202.901 69.7938V69.4172C202.638 69.3519 202.371 69.303 202.103 69.2707C201.836 69.2352 201.567 69.2166 201.298 69.2149C200.846 69.1781 200.395 69.3063 200.024 69.5776C199.882 69.7023 199.769 69.86 199.696 70.038C199.623 70.2161 199.59 70.4095 199.602 70.6028C199.59 70.7748 199.612 70.9474 199.666 71.1104C199.72 71.2733 199.806 71.4233 199.917 71.5512C200.041 71.6637 200.186 71.7493 200.343 71.8031C200.499 71.857 200.664 71.8781 200.829 71.8651V71.8651ZM207.716 72.8205C207.6 72.8302 207.485 72.8009 207.387 72.7368C207.293 72.6434 207.23 72.5213 207.206 72.3881L205.194 65.4907C205.159 65.3797 205.134 65.2652 205.121 65.149C205.117 65.1198 205.12 65.0902 205.13 65.0625C205.139 65.0347 205.154 65.0095 205.174 64.9887C205.194 64.968 205.219 64.9521 205.245 64.9424C205.272 64.9328 205.3 64.9295 205.328 64.9328H206.173C206.291 64.9226 206.408 64.9519 206.509 65.0165C206.595 65.1175 206.655 65.24 206.683 65.3722L208.138 71.2583L209.479 65.3652C209.501 65.2323 209.559 65.1087 209.647 65.0095C209.75 64.9449 209.869 64.9156 209.989 64.9258H210.66C210.781 64.916 210.903 64.9452 211.008 65.0095C211.094 65.1096 211.149 65.233 211.169 65.3652L212.51 71.335L213.992 65.3652C214.022 65.2323 214.085 65.1098 214.173 65.0095C214.273 64.944 214.391 64.9146 214.509 64.9258H215.307C215.335 64.9223 215.365 64.9257 215.392 64.9357C215.419 64.9458 215.444 64.9623 215.464 64.9839C215.484 65.0055 215.499 65.0316 215.508 65.0603C215.517 65.0889 215.519 65.1193 215.515 65.149C215.517 65.1978 215.517 65.2467 215.515 65.2955L215.454 65.5117L213.369 72.4021C213.345 72.5353 213.282 72.6573 213.188 72.7508C213.081 72.8173 212.955 72.842 212.832 72.8205H212.162C212.039 72.8323 211.916 72.8004 211.813 72.7299C211.724 72.6296 211.668 72.5027 211.652 72.3672L210.311 66.6275L208.97 72.3672C208.949 72.5026 208.891 72.6287 208.802 72.7299C208.702 72.8004 208.581 72.8324 208.46 72.8205H207.716ZM218.727 73.0577C218.275 73.0588 217.825 73.005 217.386 72.8973C217.041 72.8235 216.708 72.704 216.393 72.5416C216.283 72.4887 216.191 72.4008 216.132 72.2905C216.098 72.2113 216.08 72.126 216.078 72.0394V71.5861C216.078 71.4048 216.145 71.3072 216.272 71.3072C216.326 71.2974 216.38 71.2974 216.433 71.3072L216.648 71.3978C216.952 71.5346 217.269 71.6397 217.593 71.7117C217.929 71.7806 218.271 71.8157 218.613 71.8163C219.049 71.8426 219.483 71.7411 219.867 71.5234C220.003 71.4433 220.117 71.328 220.198 71.1888C220.279 71.0496 220.324 70.891 220.329 70.7283C220.332 70.6138 220.313 70.4999 220.272 70.3933C220.232 70.2867 220.172 70.1895 220.095 70.1076C219.845 69.8878 219.552 69.7282 219.236 69.6403L217.989 69.2289C217.465 69.0774 216.997 68.7637 216.648 68.3292C216.36 67.962 216.197 67.5058 216.185 67.032C216.177 66.6869 216.256 66.3455 216.413 66.0417C216.574 65.7702 216.783 65.5334 217.03 65.3443C217.297 65.1343 217.6 64.9782 217.922 64.884C218.273 64.7794 218.637 64.7277 219.002 64.7306C219.194 64.7283 219.387 64.7399 219.578 64.7654C219.773 64.7654 219.961 64.8282 220.135 64.87C220.3 64.9073 220.464 64.9539 220.625 65.0095C220.747 65.0493 220.866 65.1007 220.98 65.163C221.08 65.2193 221.169 65.2951 221.241 65.3861C221.294 65.4735 221.32 65.5758 221.315 65.679V66.0975C221.315 66.2858 221.248 66.3834 221.121 66.3834C221.004 66.3669 220.89 66.3291 220.785 66.2718C220.265 66.0365 219.703 65.92 219.136 65.9301C218.741 65.9084 218.348 65.995 217.996 66.1812C217.89 66.2567 217.802 66.355 217.736 66.4693C217.671 66.5835 217.629 66.7112 217.615 66.8435C217.601 66.9758 217.615 67.1097 217.655 67.2361C217.695 67.3625 217.761 67.4784 217.848 67.576C218.126 67.8086 218.449 67.9774 218.794 68.0712L220.008 68.4757C220.529 68.6107 220.998 68.9103 221.349 69.3335C221.613 69.6909 221.752 70.1311 221.744 70.5818C221.757 70.9369 221.691 71.2902 221.55 71.614C221.382 71.9229 221.154 72.1915 220.879 72.4021C220.595 72.6285 220.272 72.7965 219.927 72.8973C219.537 73.0166 219.133 73.0754 218.727 73.0716V73.0577Z" fill="white"/>
<path fill-rule="evenodd" clip-rule="evenodd" d="M220.343 77.4025C217.526 79.5715 213.436 80.7222 209.909 80.7222C205.204 80.7455 200.661 78.9425 197.167 75.666C196.906 75.4149 197.167 75.0802 197.456 75.2685C201.336 77.5757 205.727 78.7897 210.197 78.7904C213.541 78.767 216.848 78.056 219.927 76.6982C220.41 76.5099 220.812 77.0469 220.343 77.4025Z" fill="white"/>
<path fill-rule="evenodd" clip-rule="evenodd" d="M221.55 76.0077C221.188 75.5265 219.163 75.7846 218.251 75.8961C217.976 75.931 217.935 75.6799 218.184 75.4986C219.8 74.32 222.442 74.6617 222.75 75.0523C223.059 75.4428 222.67 78.2115 221.154 79.5297C220.926 79.7319 220.705 79.6273 220.806 79.3553C221.121 78.4696 221.879 76.4889 221.55 76.0077Z" fill="white"/>
<path d="M231.971 76.7523H231L233.808 69.1045H234.764L237.572 76.7523H236.601L234.316 70.3144H234.256L231.971 76.7523ZM232.329 73.7649H236.243V74.5864H232.329V73.7649Z" fill="black"/>
<path d="M239.557 76.7523L237.466 69.1045H238.407L240.005 75.3333H240.08L241.708 69.1045H242.754L244.382 75.3333H244.456L246.055 69.1045H246.996L244.905 76.7523H243.949L242.261 70.658H242.201L240.513 76.7523H239.557Z" fill="black"/>
<path d="M252.332 71.0165C252.287 70.6381 252.106 70.3443 251.787 70.1352C251.468 69.9261 251.077 69.8215 250.614 69.8215C250.276 69.8215 249.979 69.8763 249.726 69.9858C249.474 70.0954 249.277 70.246 249.136 70.4377C248.996 70.6294 248.926 70.8472 248.926 71.0912C248.926 71.2953 248.975 71.4708 249.072 71.6177C249.172 71.7621 249.299 71.8828 249.453 71.9799C249.607 72.0745 249.769 72.1529 249.938 72.2152C250.108 72.2749 250.263 72.3235 250.405 72.3608L251.182 72.5699C251.381 72.6222 251.603 72.6944 251.847 72.7865C252.093 72.8786 252.328 73.0044 252.552 73.1637C252.779 73.3205 252.966 73.5222 253.113 73.7686C253.259 74.0151 253.333 74.3176 253.333 74.6761C253.333 75.0893 253.225 75.4628 253.008 75.7964C252.794 76.1299 252.48 76.3951 252.067 76.5918C251.656 76.7884 251.157 76.8868 250.569 76.8868C250.022 76.8868 249.548 76.7984 249.147 76.6216C248.748 76.4449 248.435 76.1984 248.206 75.8822C247.979 75.5661 247.851 75.1989 247.821 74.7806H248.777C248.802 75.0694 248.899 75.3084 249.068 75.4976C249.24 75.6843 249.457 75.8237 249.718 75.9159C249.982 76.0055 250.266 76.0503 250.569 76.0503C250.923 76.0503 251.24 75.993 251.522 75.8785C251.803 75.7615 252.026 75.5997 252.19 75.3931C252.354 75.1839 252.437 74.94 252.437 74.6611C252.437 74.4072 252.366 74.2006 252.224 74.0412C252.082 73.8819 251.895 73.7525 251.664 73.6529C251.432 73.5533 251.182 73.4662 250.913 73.3915L249.972 73.1226C249.375 72.9508 248.902 72.7056 248.553 72.387C248.204 72.0683 248.03 71.6513 248.03 71.136C248.03 70.7078 248.146 70.3344 248.377 70.0157C248.611 69.6945 248.925 69.4456 249.318 69.2688C249.714 69.0896 250.156 69 250.644 69C251.137 69 251.575 69.0883 251.959 69.2651C252.342 69.4394 252.646 69.6784 252.87 69.9821C253.096 70.2858 253.216 70.6306 253.228 71.0165H252.332Z" fill="black"/>
<path d="M263.967 71.4945H263.041C262.986 71.2281 262.89 70.9941 262.753 70.7924C262.619 70.5908 262.455 70.4215 262.261 70.2846C262.069 70.1451 261.856 70.0406 261.622 69.9709C261.388 69.9012 261.144 69.8663 260.89 69.8663C260.427 69.8663 260.008 69.9833 259.632 70.2173C259.258 70.4514 258.961 70.7962 258.739 71.2517C258.52 71.7073 258.411 72.2662 258.411 72.9284C258.411 73.5906 258.52 74.1495 258.739 74.6051C258.961 75.0607 259.258 75.4055 259.632 75.6395C260.008 75.8735 260.427 75.9905 260.89 75.9905C261.144 75.9905 261.388 75.9557 261.622 75.886C261.856 75.8163 262.069 75.713 262.261 75.576C262.455 75.4366 262.619 75.2661 262.753 75.0644C262.89 74.8603 262.986 74.6263 263.041 74.3624H263.967C263.897 74.7532 263.77 75.103 263.586 75.4117C263.402 75.7204 263.173 75.9831 262.899 76.1997C262.625 76.4138 262.318 76.5768 261.977 76.6888C261.638 76.8009 261.276 76.8569 260.89 76.8569C260.238 76.8569 259.658 76.6976 259.15 76.3789C258.642 76.0602 258.242 75.6072 257.951 75.0196C257.66 74.4321 257.514 73.735 257.514 72.9284C257.514 72.1218 257.66 71.4248 257.951 70.8372C258.242 70.2497 258.642 69.7966 259.15 69.478C259.658 69.1593 260.238 69 260.89 69C261.276 69 261.638 69.056 261.977 69.168C262.318 69.28 262.625 69.4443 262.899 69.6609C263.173 69.875 263.402 70.1364 263.586 70.4451C263.77 70.7513 263.897 71.1011 263.967 71.4945Z" fill="black"/>
<path d="M266.225 69.1045V76.7523H265.344V69.1045H266.225Z" fill="black"/>
<path d="M270.17 76.8718C269.652 76.8718 269.198 76.7486 268.807 76.5021C268.418 76.2557 268.115 75.9109 267.896 75.4677C267.679 75.0246 267.571 74.5068 267.571 73.9143C267.571 73.3168 267.679 72.7952 267.896 72.3496C268.115 71.904 268.418 71.5579 268.807 71.3115C269.198 71.065 269.652 70.9418 270.17 70.9418C270.688 70.9418 271.141 71.065 271.529 71.3115C271.92 71.5579 272.224 71.904 272.44 72.3496C272.659 72.7952 272.769 73.3168 272.769 73.9143C272.769 74.5068 272.659 75.0246 272.44 75.4677C272.224 75.9109 271.92 76.2557 271.529 76.5021C271.141 76.7486 270.688 76.8718 270.17 76.8718ZM270.17 76.0802C270.563 76.0802 270.887 75.9793 271.141 75.7777C271.395 75.576 271.583 75.3109 271.705 74.9823C271.827 74.6537 271.888 74.2977 271.888 73.9143C271.888 73.5309 271.827 73.1736 271.705 72.8425C271.583 72.5114 271.395 72.2438 271.141 72.0397C270.887 71.8355 270.563 71.7335 270.17 71.7335C269.776 71.7335 269.453 71.8355 269.199 72.0397C268.945 72.2438 268.757 72.5114 268.635 72.8425C268.513 73.1736 268.452 73.5309 268.452 73.9143C268.452 74.2977 268.513 74.6537 268.635 74.9823C268.757 75.3109 268.945 75.576 269.199 75.7777C269.453 75.9793 269.776 76.0802 270.17 76.0802Z" fill="black"/>
<path d="M277.729 74.4072V71.0165H278.61V76.7523H277.729V75.7814H277.669C277.535 76.0727 277.326 76.3204 277.042 76.5245C276.758 76.7262 276.399 76.827 275.966 76.827C275.608 76.827 275.289 76.7486 275.01 76.5918C274.731 76.4324 274.512 76.1934 274.353 75.8748C274.194 75.5536 274.114 75.1491 274.114 74.6611V71.0165H274.995V74.6014C274.995 75.0196 275.112 75.3532 275.346 75.6022C275.583 75.8511 275.884 75.9756 276.25 75.9756C276.469 75.9756 276.692 75.9196 276.919 75.8076C277.148 75.6955 277.339 75.5238 277.494 75.2922C277.65 75.0607 277.729 74.7657 277.729 74.4072Z" fill="black"/>
<path d="M282.39 76.8718C281.912 76.8718 281.49 76.7511 281.124 76.5096C280.758 76.2656 280.472 75.9221 280.265 75.4789C280.059 75.0333 279.955 74.5068 279.955 73.8993C279.955 73.2969 280.059 72.7741 280.265 72.3309C280.472 71.8878 280.76 71.5455 281.128 71.304C281.496 71.0625 281.922 70.9418 282.405 70.9418C282.779 70.9418 283.074 71.004 283.29 71.1285C283.509 71.2505 283.676 71.3899 283.791 71.5467C283.908 71.7011 283.998 71.8281 284.063 71.9276H284.138V69.1045H285.019V76.7523H284.168V75.871H284.063C283.998 75.9756 283.906 76.1075 283.787 76.2669C283.667 76.4237 283.497 76.5644 283.275 76.6888C283.054 76.8108 282.759 76.8718 282.39 76.8718ZM282.51 76.0802C282.863 76.0802 283.162 75.988 283.406 75.8038C283.65 75.6171 283.835 75.3594 283.962 75.0308C284.089 74.6997 284.153 74.3176 284.153 73.8844C284.153 73.4562 284.091 73.0815 283.966 72.7604C283.842 72.4367 283.657 72.1853 283.413 72.0061C283.169 71.8243 282.868 71.7335 282.51 71.7335C282.136 71.7335 281.825 71.8293 281.576 72.021C281.33 72.2102 281.144 72.4679 281.02 72.794C280.898 73.1176 280.837 73.4811 280.837 73.8844C280.837 74.2927 280.899 74.6636 281.023 74.9972C281.15 75.3283 281.337 75.5922 281.584 75.7889C281.833 75.9831 282.141 76.0802 282.51 76.0802Z" fill="black"/>
<g filter="url(#filter0_d_16_101)">
<path d="M352.585 495.383C351.105 494.367 347.713 493.986 345.062 494.494C344.754 491.953 343.336 489.73 340.869 487.761L339.451 486.744L338.464 488.205C337.231 490.111 336.615 492.779 336.8 495.32C336.861 496.209 337.17 497.797 338.094 499.194C337.231 499.703 335.443 500.338 333.1 500.338H288.52L288.397 500.846C287.965 503.387 287.965 511.327 293.021 517.425C296.844 522.061 302.517 524.412 309.978 524.412C326.132 524.412 338.094 516.726 343.706 502.815C345.925 502.878 350.673 502.815 353.078 498.051C353.14 497.924 353.263 497.67 353.694 496.717L353.941 496.209L352.585 495.383ZM324.159 477.471H317.377V483.823H324.159V477.471ZM324.159 485.093H317.377V491.445H324.159V485.093ZM316.143 485.093H309.361V491.445H316.143V485.093ZM308.128 485.093H301.345V491.445H308.128V485.093ZM300.112 492.715H293.329V499.067H300.112L300.112 492.715ZM308.128 492.715H301.345V499.067H308.128V492.715ZM316.143 492.715H309.361V499.067H316.143V492.715ZM324.159 492.715H317.377V499.067H324.159V492.715ZM332.175 492.715H325.392V499.067H332.175V492.715Z" fill="#2396ED"/>
</g>
<path d="M269 502.482H268.5V502.982H269V502.482ZM269 249V248.5H268.5V249H269ZM288.13 249.354C288.325 249.158 288.325 248.842 288.13 248.646L284.948 245.464C284.753 245.269 284.436 245.269 284.241 245.464C284.046 245.66 284.046 245.976 284.241 246.172L287.069 249L284.241 251.828C284.046 252.024 284.046 252.34 284.241 252.535C284.436 252.731 284.753 252.731 284.948 252.535L288.13 249.354ZM281.741 501.982H269V502.982H281.741V501.982ZM269.5 502.482L269.5 249H268.5L268.5 502.482H269.5ZM269 249.5H287.776V248.5H269V249.5Z" fill="black"/>
<rect x="389.312" y="102.441" width="184.082" height="302.106" rx="0.5" stroke="#E4760E" stroke-linecap="square" stroke-dasharray="4 4"/>
<g clip-path="url(#clip1_16_101)">
<path d="M421 101.941H388.812V134.129H421V101.941Z" fill="#D86613"/>
<path d="M414.773 119.323H412.627V118.464H414.773V108.164H404.472V110.31H403.614V108.164C403.614 107.937 403.705 107.718 403.866 107.557C404.027 107.396 404.245 107.306 404.472 107.306H414.773C415 107.306 415.219 107.396 415.38 107.557C415.541 107.718 415.631 107.937 415.631 108.164V118.464C415.631 118.692 415.541 118.91 415.38 119.071C415.219 119.232 415 119.323 414.773 119.323Z" fill="white"/>
<path d="M405.331 128.765H395.031C394.803 128.765 394.585 128.674 394.424 128.513C394.263 128.352 394.172 128.134 394.172 127.906V117.606C394.172 117.378 394.263 117.16 394.424 116.999C394.585 116.838 394.803 116.748 395.031 116.748H397.176V117.606H395.031V127.906H405.331V125.76H406.189V127.906C406.189 128.134 406.099 128.352 405.938 128.513C405.777 128.674 405.558 128.765 405.331 128.765Z" fill="white"/>
<path d="M411.773 114.173V113.314H410.485C410.468 113.093 410.371 112.884 410.214 112.727C410.057 112.57 409.849 112.474 409.627 112.456V111.168H408.768V112.456H407.481V111.168H406.623V112.456H405.335V111.168H404.477V112.456H403.189V111.168H402.331V112.456H401.043V111.168H400.185V112.456C399.963 112.474 399.755 112.57 399.598 112.727C399.44 112.884 399.344 113.093 399.327 113.314H398.039V114.173H399.327V115.46H398.039V116.319H399.327V117.606H398.039V118.464H399.327V119.752H398.039V120.61H399.327V121.898H398.039V122.756H399.327C399.344 122.978 399.44 123.186 399.598 123.343C399.755 123.501 399.963 123.597 400.185 123.615V124.902H401.043V123.615H402.331V124.902H403.189V123.615H404.477V124.902H405.335V123.615H406.623V124.902H407.481V123.615H408.768V124.902H409.627V123.615C409.849 123.597 410.057 123.501 410.214 123.343C410.371 123.186 410.468 122.978 410.485 122.756H411.773V121.898H410.485V120.61H411.773V119.752H410.485V118.464H411.773V117.606H410.485V116.319H411.773V115.46H410.485V114.173H411.773ZM409.627 122.679C409.627 122.699 409.619 122.719 409.604 122.734C409.59 122.748 409.57 122.756 409.55 122.756H400.262C400.242 122.756 400.222 122.748 400.208 122.734C400.193 122.719 400.185 122.699 400.185 122.679V113.392C400.185 113.371 400.193 113.351 400.208 113.337C400.222 113.322 400.242 113.314 400.262 113.314H409.55C409.57 113.314 409.59 113.322 409.604 113.337C409.619 113.351 409.627 113.371 409.627 113.392V122.679Z" fill="white"/>
</g>
<path d="M450.155 203.734H449.165L452.03 195.93H453.005L455.871 203.734H454.88L452.548 197.165H452.487L450.155 203.734ZM450.521 200.685H454.514V201.524H450.521V200.685Z" fill="black"/>
<path d="M456.964 203.734V197.881H457.833V198.796H457.909C458.031 198.483 458.228 198.241 458.5 198.068C458.771 197.893 459.098 197.805 459.479 197.805C459.865 197.805 460.186 197.893 460.443 198.068C460.702 198.241 460.904 198.483 461.049 198.796H461.11C461.26 198.493 461.484 198.253 461.784 198.075C462.084 197.895 462.443 197.805 462.862 197.805C463.386 197.805 463.814 197.969 464.146 198.296C464.479 198.622 464.645 199.128 464.645 199.817V203.734H463.746V199.817C463.746 199.385 463.628 199.076 463.392 198.891C463.156 198.705 462.878 198.613 462.558 198.613C462.146 198.613 461.827 198.737 461.601 198.986C461.375 199.232 461.262 199.545 461.262 199.923V203.734H460.348V199.725C460.348 199.392 460.24 199.124 460.024 198.921C459.808 198.716 459.53 198.613 459.189 198.613C458.956 198.613 458.737 198.675 458.534 198.799C458.333 198.924 458.171 199.097 458.046 199.318C457.924 199.536 457.863 199.789 457.863 200.076V203.734H456.964Z" fill="black"/>
<path d="M468.012 203.871C467.641 203.871 467.304 203.801 467.002 203.661C466.7 203.519 466.46 203.314 466.282 203.048C466.104 202.778 466.015 202.453 466.015 202.072C466.015 201.737 466.081 201.465 466.213 201.257C466.345 201.046 466.522 200.881 466.743 200.762C466.964 200.642 467.208 200.553 467.475 200.495C467.744 200.434 468.014 200.386 468.286 200.35C468.642 200.304 468.93 200.27 469.151 200.247C469.375 200.222 469.537 200.18 469.639 200.121C469.743 200.063 469.795 199.961 469.795 199.817V199.786C469.795 199.41 469.692 199.118 469.486 198.91C469.283 198.702 468.974 198.597 468.56 198.597C468.131 198.597 467.795 198.691 467.551 198.879C467.307 199.067 467.135 199.268 467.036 199.481L466.183 199.177C466.335 198.821 466.538 198.544 466.793 198.346C467.049 198.145 467.328 198.006 467.631 197.927C467.936 197.846 468.235 197.805 468.53 197.805C468.718 197.805 468.934 197.828 469.178 197.873C469.424 197.917 469.662 198.007 469.89 198.144C470.121 198.281 470.313 198.488 470.465 198.765C470.618 199.042 470.694 199.413 470.694 199.878V203.734H469.795V202.941H469.749C469.688 203.068 469.587 203.204 469.444 203.349C469.302 203.493 469.113 203.617 468.877 203.718C468.64 203.82 468.352 203.871 468.012 203.871ZM468.149 203.063C468.505 203.063 468.804 202.993 469.048 202.853C469.295 202.714 469.48 202.533 469.604 202.312C469.731 202.091 469.795 201.859 469.795 201.615V200.792C469.757 200.838 469.673 200.88 469.543 200.918C469.416 200.953 469.269 200.985 469.101 201.013C468.936 201.038 468.775 201.061 468.618 201.082C468.463 201.099 468.337 201.115 468.24 201.127C468.007 201.158 467.788 201.207 467.585 201.276C467.384 201.342 467.222 201.442 467.097 201.577C466.975 201.709 466.914 201.889 466.914 202.118C466.914 202.43 467.03 202.667 467.261 202.827C467.495 202.984 467.791 203.063 468.149 203.063Z" fill="black"/>
<path d="M472.168 203.734V203.048L475.49 198.78V198.719H472.274V197.881H476.648V198.597L473.417 202.834V202.895H476.755V203.734H472.168Z" fill="black"/>
<path d="M480.35 203.855C479.822 203.855 479.358 203.73 478.959 203.478C478.563 203.227 478.253 202.875 478.03 202.423C477.809 201.971 477.698 201.442 477.698 200.838C477.698 200.228 477.809 199.696 478.03 199.241C478.253 198.787 478.563 198.434 478.959 198.182C479.358 197.931 479.822 197.805 480.35 197.805C480.878 197.805 481.341 197.931 481.737 198.182C482.136 198.434 482.446 198.787 482.667 199.241C482.89 199.696 483.002 200.228 483.002 200.838C483.002 201.442 482.89 201.971 482.667 202.423C482.446 202.875 482.136 203.227 481.737 203.478C481.341 203.73 480.878 203.855 480.35 203.855ZM480.35 203.048C480.751 203.048 481.082 202.945 481.341 202.739C481.6 202.533 481.792 202.263 481.916 201.928C482.04 201.592 482.103 201.229 482.103 200.838C482.103 200.447 482.04 200.082 481.916 199.744C481.792 199.406 481.6 199.133 481.341 198.925C481.082 198.717 480.751 198.613 480.35 198.613C479.949 198.613 479.618 198.717 479.359 198.925C479.1 199.133 478.908 199.406 478.784 199.744C478.66 200.082 478.597 200.447 478.597 200.838C478.597 201.229 478.66 201.592 478.784 201.928C478.908 202.263 479.1 202.533 479.359 202.739C479.618 202.945 479.949 203.048 480.35 203.048Z" fill="black"/>
<path d="M485.274 200.213V203.734H484.374V197.881H485.243V198.796H485.319C485.457 198.498 485.665 198.26 485.944 198.079C486.224 197.896 486.584 197.805 487.026 197.805C487.423 197.805 487.769 197.886 488.067 198.049C488.364 198.209 488.595 198.453 488.76 198.78C488.925 199.105 489.008 199.517 489.008 200.015V203.734H488.108V200.076C488.108 199.616 487.989 199.258 487.75 199.001C487.512 198.742 487.184 198.613 486.767 198.613C486.48 198.613 486.224 198.675 485.998 198.799C485.774 198.924 485.598 199.105 485.468 199.344C485.338 199.583 485.274 199.873 485.274 200.213Z" fill="black"/>
<path d="M493.79 203.734V195.93H498.5V196.769H494.735V199.405H498.256V200.243H494.735V202.895H498.561V203.734H493.79Z" fill="black"/>
<path d="M506.482 198.369H505.537C505.481 198.097 505.383 197.858 505.244 197.653C505.107 197.447 504.939 197.274 504.741 197.134C504.545 196.992 504.328 196.885 504.089 196.814C503.85 196.743 503.602 196.708 503.342 196.708C502.87 196.708 502.442 196.827 502.058 197.066C501.677 197.305 501.374 197.656 501.148 198.121C500.924 198.586 500.812 199.156 500.812 199.832C500.812 200.508 500.924 201.078 501.148 201.543C501.374 202.008 501.677 202.359 502.058 202.598C502.442 202.837 502.87 202.956 503.342 202.956C503.602 202.956 503.85 202.921 504.089 202.85C504.328 202.778 504.545 202.673 504.741 202.533C504.939 202.391 505.107 202.217 505.244 202.011C505.383 201.803 505.481 201.564 505.537 201.295H506.482C506.411 201.694 506.281 202.051 506.093 202.366C505.905 202.681 505.672 202.949 505.392 203.17C505.113 203.388 504.799 203.554 504.451 203.669C504.106 203.783 503.736 203.84 503.342 203.84C502.677 203.84 502.085 203.678 501.567 203.353C501.049 203.027 500.641 202.565 500.344 201.966C500.047 201.366 499.898 200.655 499.898 199.832C499.898 199.009 500.047 198.298 500.344 197.698C500.641 197.099 501.049 196.636 501.567 196.311C502.085 195.986 502.677 195.824 503.342 195.824C503.736 195.824 504.106 195.881 504.451 195.995C504.799 196.109 505.113 196.277 505.392 196.498C505.672 196.716 505.905 196.983 506.093 197.298C506.281 197.611 506.411 197.967 506.482 198.369Z" fill="black"/>
<path d="M507.872 203.734V203.048L510.447 200.228C510.75 199.898 510.999 199.611 511.194 199.367C511.39 199.121 511.535 198.89 511.629 198.674C511.725 198.455 511.773 198.227 511.773 197.988C511.773 197.713 511.707 197.476 511.575 197.275C511.446 197.075 511.268 196.92 511.042 196.81C510.816 196.701 510.562 196.647 510.28 196.647C509.98 196.647 509.718 196.709 509.495 196.833C509.274 196.955 509.102 197.127 508.981 197.348C508.861 197.569 508.801 197.828 508.801 198.125H507.902C507.902 197.668 508.008 197.266 508.218 196.921C508.429 196.575 508.716 196.306 509.08 196.113C509.445 195.92 509.856 195.824 510.31 195.824C510.767 195.824 511.173 195.92 511.526 196.113C511.879 196.306 512.156 196.567 512.356 196.894C512.557 197.222 512.657 197.586 512.657 197.988C512.657 198.275 512.605 198.556 512.501 198.83C512.399 199.102 512.222 199.405 511.968 199.74C511.716 200.073 511.367 200.48 510.92 200.96L509.167 202.834V202.895H512.794V203.734H507.872Z" fill="black"/>
<path d="M450.155 285.545H449.165L452.03 277.742H453.005L455.871 285.545H454.88L452.548 278.977H452.487L450.155 285.545ZM450.521 282.497H454.514V283.335H450.521V282.497Z" fill="black"/>
<path d="M456.964 285.545V279.693H457.833V280.607H457.909C458.031 280.295 458.228 280.052 458.5 279.88C458.771 279.704 459.098 279.617 459.479 279.617C459.865 279.617 460.186 279.704 460.443 279.88C460.702 280.052 460.904 280.295 461.049 280.607H461.11C461.26 280.305 461.484 280.065 461.784 279.887C462.084 279.707 462.443 279.617 462.862 279.617C463.386 279.617 463.814 279.781 464.146 280.108C464.479 280.433 464.645 280.94 464.645 281.628V285.545H463.746V281.628C463.746 281.197 463.628 280.888 463.392 280.703C463.156 280.517 462.878 280.424 462.558 280.424C462.146 280.424 461.827 280.549 461.601 280.798C461.375 281.044 461.262 281.357 461.262 281.735V285.545H460.348V281.537C460.348 281.204 460.24 280.936 460.024 280.733C459.808 280.527 459.53 280.424 459.189 280.424C458.956 280.424 458.737 280.487 458.534 280.611C458.333 280.736 458.171 280.908 458.046 281.129C457.924 281.348 457.863 281.6 457.863 281.888V285.545H456.964Z" fill="black"/>
<path d="M468.012 285.682C467.641 285.682 467.304 285.613 467.002 285.473C466.7 285.331 466.46 285.126 466.282 284.859C466.104 284.59 466.015 284.265 466.015 283.884C466.015 283.549 466.081 283.277 466.213 283.069C466.345 282.858 466.522 282.693 466.743 282.573C466.964 282.454 467.208 282.365 467.475 282.307C467.744 282.246 468.014 282.197 468.286 282.162C468.642 282.116 468.93 282.082 469.151 282.059C469.375 282.034 469.537 281.992 469.639 281.933C469.743 281.875 469.795 281.773 469.795 281.628V281.598C469.795 281.222 469.692 280.93 469.486 280.722C469.283 280.513 468.974 280.409 468.56 280.409C468.131 280.409 467.795 280.503 467.551 280.691C467.307 280.879 467.135 281.08 467.036 281.293L466.183 280.988C466.335 280.633 466.538 280.356 466.793 280.158C467.049 279.957 467.328 279.817 467.631 279.739C467.936 279.657 468.235 279.617 468.53 279.617C468.718 279.617 468.934 279.64 469.178 279.685C469.424 279.728 469.662 279.819 469.89 279.956C470.121 280.093 470.313 280.3 470.465 280.577C470.618 280.854 470.694 281.225 470.694 281.689V285.545H469.795V284.753H469.749C469.688 284.88 469.587 285.016 469.444 285.16C469.302 285.305 469.113 285.428 468.877 285.53C468.64 285.632 468.352 285.682 468.012 285.682ZM468.149 284.875C468.505 284.875 468.804 284.805 469.048 284.665C469.295 284.525 469.48 284.345 469.604 284.124C469.731 283.903 469.795 283.671 469.795 283.427V282.604C469.757 282.65 469.673 282.691 469.543 282.73C469.416 282.765 469.269 282.797 469.101 282.825C468.936 282.85 468.775 282.873 468.618 282.893C468.463 282.911 468.337 282.926 468.24 282.939C468.007 282.97 467.788 283.019 467.585 283.088C467.384 283.154 467.222 283.254 467.097 283.389C466.975 283.521 466.914 283.701 466.914 283.93C466.914 284.242 467.03 284.478 467.261 284.638C467.495 284.796 467.791 284.875 468.149 284.875Z" fill="black"/>
<path d="M472.168 285.545V284.859L475.49 280.592V280.531H472.274V279.693H476.648V280.409L473.417 284.646V284.707H476.755V285.545H472.168Z" fill="black"/>
<path d="M480.35 285.667C479.822 285.667 479.358 285.541 478.959 285.29C478.563 285.039 478.253 284.687 478.03 284.235C477.809 283.782 477.698 283.254 477.698 282.65C477.698 282.04 477.809 281.508 478.03 281.053C478.253 280.598 478.563 280.245 478.959 279.994C479.358 279.742 479.822 279.617 480.35 279.617C480.878 279.617 481.341 279.742 481.737 279.994C482.136 280.245 482.446 280.598 482.667 281.053C482.89 281.508 483.002 282.04 483.002 282.65C483.002 283.254 482.89 283.782 482.667 284.235C482.446 284.687 482.136 285.039 481.737 285.29C481.341 285.541 480.878 285.667 480.35 285.667ZM480.35 284.859C480.751 284.859 481.082 284.757 481.341 284.551C481.6 284.345 481.792 284.075 481.916 283.739C482.04 283.404 482.103 283.041 482.103 282.65C482.103 282.258 482.04 281.894 481.916 281.556C481.792 281.218 481.6 280.945 481.341 280.737C481.082 280.529 480.751 280.424 480.35 280.424C479.949 280.424 479.618 280.529 479.359 280.737C479.1 280.945 478.908 281.218 478.784 281.556C478.66 281.894 478.597 282.258 478.597 282.65C478.597 283.041 478.66 283.404 478.784 283.739C478.908 284.075 479.1 284.345 479.359 284.551C479.618 284.757 479.949 284.859 480.35 284.859Z" fill="black"/>
<path d="M485.274 282.025V285.545H484.374V279.693H485.243V280.607H485.319C485.457 280.31 485.665 280.071 485.944 279.891C486.224 279.708 486.584 279.617 487.026 279.617C487.423 279.617 487.769 279.698 488.067 279.861C488.364 280.021 488.595 280.264 488.76 280.592C488.925 280.917 489.008 281.329 489.008 281.827V285.545H488.108V281.888C488.108 281.428 487.989 281.07 487.75 280.813C487.512 280.554 487.184 280.424 486.767 280.424C486.48 280.424 486.224 280.487 485.998 280.611C485.774 280.736 485.598 280.917 485.468 281.156C485.338 281.395 485.274 281.684 485.274 282.025Z" fill="black"/>
<path d="M493.79 285.545V277.742H498.5V278.58H494.735V281.217H498.256V282.055H494.735V284.707H498.561V285.545H493.79Z" fill="black"/>
<path d="M506.482 280.181H505.537C505.481 279.909 505.383 279.67 505.244 279.464C505.107 279.259 504.939 279.086 504.741 278.946C504.545 278.804 504.328 278.697 504.089 278.626C503.85 278.555 503.602 278.519 503.342 278.519C502.87 278.519 502.442 278.639 502.058 278.877C501.677 279.116 501.374 279.468 501.148 279.933C500.924 280.398 500.812 280.968 500.812 281.644C500.812 282.319 500.924 282.89 501.148 283.354C501.374 283.819 501.677 284.171 502.058 284.41C502.442 284.649 502.87 284.768 503.342 284.768C503.602 284.768 503.85 284.732 504.089 284.661C504.328 284.59 504.545 284.485 504.741 284.345C504.939 284.203 505.107 284.029 505.244 283.823C505.383 283.615 505.481 283.376 505.537 283.107H506.482C506.411 283.506 506.281 283.862 506.093 284.177C505.905 284.492 505.672 284.76 505.392 284.981C505.113 285.2 504.799 285.366 504.451 285.481C504.106 285.595 503.736 285.652 503.342 285.652C502.677 285.652 502.085 285.489 501.567 285.164C501.049 284.839 500.641 284.377 500.344 283.777C500.047 283.178 499.898 282.467 499.898 281.644C499.898 280.821 500.047 280.109 500.344 279.51C500.641 278.911 501.049 278.448 501.567 278.123C502.085 277.798 502.677 277.635 503.342 277.635C503.736 277.635 504.106 277.693 504.451 277.807C504.799 277.921 505.113 278.089 505.392 278.31C505.672 278.528 505.905 278.795 506.093 279.11C506.281 279.422 506.411 279.779 506.482 280.181Z" fill="black"/>
<path d="M507.872 285.545V284.859L510.447 282.04C510.75 281.71 510.999 281.423 511.194 281.179C511.39 280.932 511.535 280.701 511.629 280.485C511.725 280.267 511.773 280.038 511.773 279.8C511.773 279.525 511.707 279.288 511.575 279.087C511.446 278.886 511.268 278.731 511.042 278.622C510.816 278.513 510.562 278.458 510.28 278.458C509.98 278.458 509.718 278.521 509.495 278.645C509.274 278.767 509.102 278.938 508.981 279.159C508.861 279.38 508.801 279.64 508.801 279.937H507.902C507.902 279.48 508.008 279.078 508.218 278.733C508.429 278.387 508.716 278.118 509.08 277.925C509.445 277.732 509.856 277.635 510.31 277.635C510.767 277.635 511.173 277.732 511.526 277.925C511.879 278.118 512.156 278.378 512.356 278.706C512.557 279.034 512.657 279.398 512.657 279.8C512.657 280.087 512.605 280.367 512.501 280.642C512.399 280.913 512.222 281.217 511.968 281.552C511.716 281.885 511.367 282.291 510.92 282.771L509.167 284.646V284.707H512.794V285.545H507.872Z" fill="black"/>
<path d="M450.155 367.357H449.165L452.03 359.554H453.005L455.871 367.357H454.88L452.548 360.788H452.487L450.155 367.357ZM450.521 364.309H454.514V365.147H450.521V364.309Z" fill="black"/>
<path d="M456.964 367.357V361.505H457.833V362.419H457.909C458.031 362.107 458.228 361.864 458.5 361.691C458.771 361.516 459.098 361.428 459.479 361.428C459.865 361.428 460.186 361.516 460.443 361.691C460.702 361.864 460.904 362.107 461.049 362.419H461.11C461.26 362.117 461.484 361.877 461.784 361.699C462.084 361.519 462.443 361.428 462.862 361.428C463.386 361.428 463.814 361.592 464.146 361.92C464.479 362.245 464.645 362.752 464.645 363.44V367.357H463.746V363.44C463.746 363.008 463.628 362.7 463.392 362.514C463.156 362.329 462.878 362.236 462.558 362.236C462.146 362.236 461.827 362.361 461.601 362.61C461.375 362.856 461.262 363.168 461.262 363.547V367.357H460.348V363.349C460.348 363.016 460.24 362.748 460.024 362.545C459.808 362.339 459.53 362.236 459.189 362.236C458.956 362.236 458.737 362.298 458.534 362.423C458.333 362.547 458.171 362.72 458.046 362.941C457.924 363.16 457.863 363.412 457.863 363.699V367.357H456.964Z" fill="black"/>
<path d="M468.012 367.494C467.641 367.494 467.304 367.424 467.002 367.285C466.7 367.142 466.46 366.938 466.282 366.671C466.104 366.402 466.015 366.077 466.015 365.696C466.015 365.361 466.081 365.089 466.213 364.88C466.345 364.67 466.522 364.505 466.743 364.385C466.964 364.266 467.208 364.177 467.475 364.118C467.744 364.057 468.014 364.009 468.286 363.974C468.642 363.928 468.93 363.894 469.151 363.871C469.375 363.845 469.537 363.803 469.639 363.745C469.743 363.687 469.795 363.585 469.795 363.44V363.41C469.795 363.034 469.692 362.742 469.486 362.533C469.283 362.325 468.974 362.221 468.56 362.221C468.131 362.221 467.795 362.315 467.551 362.503C467.307 362.691 467.135 362.892 467.036 363.105L466.183 362.8C466.335 362.444 466.538 362.168 466.793 361.969C467.049 361.769 467.328 361.629 467.631 361.55C467.936 361.469 468.235 361.428 468.53 361.428C468.718 361.428 468.934 361.451 469.178 361.497C469.424 361.54 469.662 361.63 469.89 361.768C470.121 361.905 470.313 362.112 470.465 362.389C470.618 362.665 470.694 363.036 470.694 363.501V367.357H469.795V366.565H469.749C469.688 366.692 469.587 366.827 469.444 366.972C469.302 367.117 469.113 367.24 468.877 367.342C468.64 367.443 468.352 367.494 468.012 367.494ZM468.149 366.686C468.505 366.686 468.804 366.617 469.048 366.477C469.295 366.337 469.48 366.157 469.604 365.936C469.731 365.715 469.795 365.482 469.795 365.239V364.416C469.757 364.461 469.673 364.503 469.543 364.541C469.416 364.577 469.269 364.609 469.101 364.637C468.936 364.662 468.775 364.685 468.618 364.705C468.463 364.723 468.337 364.738 468.24 364.751C468.007 364.781 467.788 364.831 467.585 364.899C467.384 364.966 467.222 365.066 467.097 365.2C466.975 365.333 466.914 365.513 466.914 365.742C466.914 366.054 467.03 366.29 467.261 366.45C467.495 366.608 467.791 366.686 468.149 366.686Z" fill="black"/>
<path d="M472.168 367.357V366.671L475.49 362.404V362.343H472.274V361.505H476.648V362.221L473.417 366.458V366.519H476.755V367.357H472.168Z" fill="black"/>
<path d="M480.35 367.479C479.822 367.479 479.358 367.353 478.959 367.102C478.563 366.85 478.253 366.498 478.03 366.046C477.809 365.594 477.698 365.066 477.698 364.461C477.698 363.852 477.809 363.32 478.03 362.865C478.253 362.41 478.563 362.057 478.959 361.806C479.358 361.554 479.822 361.428 480.35 361.428C480.878 361.428 481.341 361.554 481.737 361.806C482.136 362.057 482.446 362.41 482.667 362.865C482.89 363.32 483.002 363.852 483.002 364.461C483.002 365.066 482.89 365.594 482.667 366.046C482.446 366.498 482.136 366.85 481.737 367.102C481.341 367.353 480.878 367.479 480.35 367.479ZM480.35 366.671C480.751 366.671 481.082 366.568 481.341 366.363C481.6 366.157 481.792 365.886 481.916 365.551C482.04 365.216 482.103 364.852 482.103 364.461C482.103 364.07 482.04 363.706 481.916 363.368C481.792 363.03 481.6 362.757 481.341 362.549C481.082 362.34 480.751 362.236 480.35 362.236C479.949 362.236 479.618 362.34 479.359 362.549C479.1 362.757 478.908 363.03 478.784 363.368C478.66 363.706 478.597 364.07 478.597 364.461C478.597 364.852 478.66 365.216 478.784 365.551C478.908 365.886 479.1 366.157 479.359 366.363C479.618 366.568 479.949 366.671 480.35 366.671Z" fill="black"/>
<path d="M485.274 363.836V367.357H484.374V361.505H485.243V362.419H485.319C485.457 362.122 485.665 361.883 485.944 361.703C486.224 361.52 486.584 361.428 487.026 361.428C487.423 361.428 487.769 361.51 488.067 361.672C488.364 361.832 488.595 362.076 488.76 362.404C488.925 362.729 489.008 363.14 489.008 363.638V367.357H488.108V363.699C488.108 363.24 487.989 362.881 487.75 362.625C487.512 362.366 487.184 362.236 486.767 362.236C486.48 362.236 486.224 362.298 485.998 362.423C485.774 362.547 485.598 362.729 485.468 362.968C485.338 363.207 485.274 363.496 485.274 363.836Z" fill="black"/>
<path d="M493.79 367.357V359.554H498.5V360.392H494.735V363.029H498.256V363.867H494.735V366.519H498.561V367.357H493.79Z" fill="black"/>
<path d="M506.482 361.992H505.537C505.481 361.721 505.383 361.482 505.244 361.276C505.107 361.07 504.939 360.898 504.741 360.758C504.545 360.616 504.328 360.509 504.089 360.438C503.85 360.367 503.602 360.331 503.342 360.331C502.87 360.331 502.442 360.45 502.058 360.689C501.677 360.928 501.374 361.28 501.148 361.745C500.924 362.21 500.812 362.78 500.812 363.455C500.812 364.131 500.924 364.701 501.148 365.166C501.374 365.631 501.677 365.983 502.058 366.222C502.442 366.46 502.87 366.58 503.342 366.58C503.602 366.58 503.85 366.544 504.089 366.473C504.328 366.402 504.545 366.297 504.741 366.157C504.939 366.015 505.107 365.841 505.244 365.635C505.383 365.427 505.481 365.188 505.537 364.919H506.482C506.411 365.317 506.281 365.674 506.093 365.989C505.905 366.304 505.672 366.572 505.392 366.793C505.113 367.012 504.799 367.178 504.451 367.292C504.106 367.407 503.736 367.464 503.342 367.464C502.677 367.464 502.085 367.301 501.567 366.976C501.049 366.651 500.641 366.189 500.344 365.589C500.047 364.99 499.898 364.278 499.898 363.455C499.898 362.632 500.047 361.921 500.344 361.322C500.641 360.722 501.049 360.26 501.567 359.935C502.085 359.61 502.677 359.447 503.342 359.447C503.736 359.447 504.106 359.504 504.451 359.619C504.799 359.733 505.113 359.901 505.392 360.122C505.672 360.34 505.905 360.607 506.093 360.922C506.281 361.234 506.411 361.591 506.482 361.992Z" fill="black"/>
<path d="M507.872 367.357V366.671L510.447 363.852C510.75 363.521 510.999 363.234 511.194 362.991C511.39 362.744 511.535 362.513 511.629 362.297C511.725 362.079 511.773 361.85 511.773 361.611C511.773 361.337 511.707 361.099 511.575 360.899C511.446 360.698 511.268 360.543 511.042 360.434C510.816 360.325 510.562 360.27 510.28 360.27C509.98 360.27 509.718 360.332 509.495 360.457C509.274 360.579 509.102 360.75 508.981 360.971C508.861 361.192 508.801 361.451 508.801 361.748H507.902C507.902 361.291 508.008 360.89 508.218 360.544C508.429 360.199 508.716 359.93 509.08 359.737C509.445 359.544 509.856 359.447 510.31 359.447C510.767 359.447 511.173 359.544 511.526 359.737C511.879 359.93 512.156 360.19 512.356 360.518C512.557 360.845 512.657 361.21 512.657 361.611C512.657 361.898 512.605 362.179 512.501 362.453C512.399 362.725 512.222 363.029 511.968 363.364C511.716 363.697 511.367 364.103 510.92 364.583L509.167 366.458V366.519H512.794V367.357H507.872Z" fill="black"/>
<path d="M426.365 122.059V114.256H431.074V115.094H427.31V117.73H430.83V118.569H427.31V121.221H431.135V122.059H426.365Z" fill="black"/>
<path d="M439.056 116.694H438.111C438.056 116.422 437.958 116.184 437.818 115.978C437.681 115.772 437.513 115.599 437.315 115.46C437.12 115.317 436.902 115.211 436.664 115.14C436.425 115.068 436.176 115.033 435.917 115.033C435.444 115.033 435.016 115.152 434.633 115.391C434.252 115.63 433.948 115.982 433.722 116.446C433.499 116.911 433.387 117.482 433.387 118.157C433.387 118.833 433.499 119.403 433.722 119.868C433.948 120.333 434.252 120.685 434.633 120.923C435.016 121.162 435.444 121.282 435.917 121.282C436.176 121.282 436.425 121.246 436.664 121.175C436.902 121.104 437.12 120.998 437.315 120.859C437.513 120.716 437.681 120.542 437.818 120.337C437.958 120.128 438.056 119.89 438.111 119.62H439.056C438.985 120.019 438.856 120.376 438.668 120.691C438.48 121.006 438.246 121.274 437.967 121.495C437.687 121.713 437.374 121.88 437.026 121.994C436.68 122.108 436.311 122.165 435.917 122.165C435.251 122.165 434.659 122.003 434.141 121.678C433.623 121.353 433.215 120.89 432.918 120.291C432.621 119.691 432.472 118.98 432.472 118.157C432.472 117.334 432.621 116.623 432.918 116.023C433.215 115.424 433.623 114.962 434.141 114.637C434.659 114.311 435.251 114.149 435.917 114.149C436.311 114.149 436.68 114.206 437.026 114.32C437.374 114.435 437.687 114.602 437.967 114.823C438.246 115.042 438.48 115.308 438.668 115.623C438.856 115.936 438.985 116.293 439.056 116.694Z" fill="black"/>
<path d="M444.851 116.206C444.805 115.82 444.62 115.521 444.294 115.307C443.969 115.094 443.57 114.987 443.098 114.987C442.753 114.987 442.45 115.043 442.191 115.155C441.935 115.267 441.734 115.42 441.589 115.616C441.447 115.811 441.376 116.034 441.376 116.283C441.376 116.491 441.425 116.67 441.524 116.82C441.626 116.967 441.756 117.09 441.913 117.189C442.071 117.286 442.236 117.366 442.408 117.429C442.581 117.49 442.74 117.54 442.885 117.578L443.677 117.791C443.88 117.845 444.106 117.918 444.355 118.012C444.607 118.106 444.847 118.235 445.075 118.397C445.307 118.557 445.497 118.763 445.647 119.014C445.797 119.266 445.872 119.575 445.872 119.94C445.872 120.362 445.761 120.743 445.54 121.083C445.322 121.424 445.002 121.694 444.58 121.895C444.161 122.096 443.652 122.196 443.052 122.196C442.493 122.196 442.01 122.106 441.601 121.925C441.194 121.745 440.874 121.494 440.64 121.171C440.409 120.848 440.278 120.474 440.248 120.047H441.223C441.249 120.342 441.348 120.586 441.521 120.779C441.696 120.969 441.917 121.111 442.184 121.205C442.453 121.297 442.742 121.342 443.052 121.342C443.413 121.342 443.737 121.284 444.024 121.167C444.311 121.048 444.538 120.883 444.706 120.672C444.874 120.459 444.957 120.21 444.957 119.925C444.957 119.666 444.885 119.455 444.74 119.293C444.595 119.13 444.405 118.998 444.169 118.896C443.932 118.795 443.677 118.706 443.403 118.63L442.443 118.355C441.833 118.18 441.35 117.93 440.995 117.605C440.639 117.28 440.461 116.854 440.461 116.328C440.461 115.891 440.58 115.51 440.816 115.185C441.055 114.858 441.375 114.604 441.776 114.423C442.18 114.24 442.631 114.149 443.128 114.149C443.631 114.149 444.078 114.239 444.47 114.419C444.861 114.597 445.171 114.841 445.399 115.151C445.631 115.461 445.752 115.813 445.765 116.206H444.851Z" fill="black"/>
<path d="M450.443 122.059V114.256H455.152V115.094H451.388V117.73H454.909V118.569H451.388V121.221H455.213V122.059H450.443Z" fill="black"/>
<path d="M463.135 116.694H462.19C462.134 116.422 462.036 116.184 461.896 115.978C461.759 115.772 461.592 115.599 461.393 115.46C461.198 115.317 460.981 115.211 460.742 115.14C460.503 115.068 460.254 115.033 459.995 115.033C459.523 115.033 459.095 115.152 458.711 115.391C458.33 115.63 458.027 115.982 457.8 116.446C457.577 116.911 457.465 117.482 457.465 118.157C457.465 118.833 457.577 119.403 457.8 119.868C458.027 120.333 458.33 120.685 458.711 120.923C459.095 121.162 459.523 121.282 459.995 121.282C460.254 121.282 460.503 121.246 460.742 121.175C460.981 121.104 461.198 120.998 461.393 120.859C461.592 120.716 461.759 120.542 461.896 120.337C462.036 120.128 462.134 119.89 462.19 119.62H463.135C463.064 120.019 462.934 120.376 462.746 120.691C462.558 121.006 462.324 121.274 462.045 121.495C461.766 121.713 461.452 121.88 461.104 121.994C460.758 122.108 460.389 122.165 459.995 122.165C459.33 122.165 458.738 122.003 458.22 121.678C457.701 121.353 457.294 120.89 456.997 120.291C456.699 119.691 456.551 118.98 456.551 118.157C456.551 117.334 456.699 116.623 456.997 116.023C457.294 115.424 457.701 114.962 458.22 114.637C458.738 114.311 459.33 114.149 459.995 114.149C460.389 114.149 460.758 114.206 461.104 114.32C461.452 114.435 461.766 114.602 462.045 114.823C462.324 115.042 462.558 115.308 462.746 115.623C462.934 115.936 463.064 116.293 463.135 116.694Z" fill="black"/>
<path d="M464.524 122.059V121.373L467.1 118.553C467.402 118.223 467.651 117.936 467.847 117.692C468.043 117.446 468.187 117.215 468.281 116.999C468.378 116.78 468.426 116.552 468.426 116.313C468.426 116.039 468.36 115.801 468.228 115.601C468.098 115.4 467.921 115.245 467.695 115.136C467.468 115.026 467.214 114.972 466.932 114.972C466.633 114.972 466.371 115.034 466.148 115.159C465.927 115.281 465.755 115.452 465.633 115.673C465.514 115.894 465.454 116.153 465.454 116.45H464.555C464.555 115.993 464.66 115.592 464.871 115.246C465.082 114.901 465.369 114.632 465.732 114.438C466.098 114.245 466.508 114.149 466.963 114.149C467.42 114.149 467.825 114.245 468.178 114.438C468.531 114.632 468.808 114.892 469.009 115.22C469.21 115.547 469.31 115.912 469.31 116.313C469.31 116.6 469.258 116.881 469.154 117.155C469.052 117.427 468.874 117.73 468.62 118.066C468.369 118.398 468.02 118.805 467.573 119.285L465.82 121.16V121.221H469.447V122.059H464.524Z" fill="black"/>
<path d="M480.455 116.694H479.51C479.454 116.422 479.356 116.184 479.216 115.978C479.079 115.772 478.912 115.599 478.713 115.46C478.518 115.317 478.301 115.211 478.062 115.14C477.823 115.068 477.574 115.033 477.315 115.033C476.843 115.033 476.415 115.152 476.031 115.391C475.65 115.63 475.347 115.982 475.121 116.446C474.897 116.911 474.785 117.482 474.785 118.157C474.785 118.833 474.897 119.403 475.121 119.868C475.347 120.333 475.65 120.685 476.031 120.923C476.415 121.162 476.843 121.282 477.315 121.282C477.574 121.282 477.823 121.246 478.062 121.175C478.301 121.104 478.518 120.998 478.713 120.859C478.912 120.716 479.079 120.542 479.216 120.337C479.356 120.128 479.454 119.89 479.51 119.62H480.455C480.384 120.019 480.254 120.376 480.066 120.691C479.878 121.006 479.644 121.274 479.365 121.495C479.086 121.713 478.772 121.88 478.424 121.994C478.078 122.108 477.709 122.165 477.315 122.165C476.65 122.165 476.058 122.003 475.54 121.678C475.021 121.353 474.614 120.89 474.317 120.291C474.019 119.691 473.871 118.98 473.871 118.157C473.871 117.334 474.019 116.623 474.317 116.023C474.614 115.424 475.021 114.962 475.54 114.637C476.058 114.311 476.65 114.149 477.315 114.149C477.709 114.149 478.078 114.206 478.424 114.32C478.772 114.435 479.086 114.602 479.365 114.823C479.644 115.042 479.878 115.308 480.066 115.623C480.254 115.936 480.384 116.293 480.455 116.694Z" fill="black"/>
<path d="M484.237 122.181C483.709 122.181 483.245 122.055 482.847 121.803C482.45 121.552 482.14 121.2 481.917 120.748C481.696 120.296 481.585 119.768 481.585 119.163C481.585 118.553 481.696 118.021 481.917 117.567C482.14 117.112 482.45 116.759 482.847 116.507C483.245 116.256 483.709 116.13 484.237 116.13C484.766 116.13 485.228 116.256 485.624 116.507C486.023 116.759 486.333 117.112 486.554 117.567C486.777 118.021 486.889 118.553 486.889 119.163C486.889 119.768 486.777 120.296 486.554 120.748C486.333 121.2 486.023 121.552 485.624 121.803C485.228 122.055 484.766 122.181 484.237 122.181ZM484.237 121.373C484.639 121.373 484.969 121.27 485.228 121.064C485.487 120.859 485.679 120.588 485.803 120.253C485.928 119.917 485.99 119.554 485.99 119.163C485.99 118.772 485.928 118.407 485.803 118.07C485.679 117.732 485.487 117.459 485.228 117.25C484.969 117.042 484.639 116.938 484.237 116.938C483.836 116.938 483.506 117.042 483.247 117.25C482.988 117.459 482.796 117.732 482.671 118.07C482.547 118.407 482.485 118.772 482.485 119.163C482.485 119.554 482.547 119.917 482.671 120.253C482.796 120.588 482.988 120.859 483.247 121.064C483.506 121.27 483.836 121.373 484.237 121.373Z" fill="black"/>
<path d="M489.161 118.538V122.059H488.262V116.206H489.13V117.121H489.207C489.344 116.824 489.552 116.585 489.832 116.404C490.111 116.222 490.472 116.13 490.914 116.13C491.31 116.13 491.657 116.211 491.954 116.374C492.251 116.534 492.482 116.778 492.647 117.106C492.812 117.431 492.895 117.842 492.895 118.34V122.059H491.996V118.401C491.996 117.941 491.876 117.583 491.638 117.327C491.399 117.067 491.071 116.938 490.655 116.938C490.368 116.938 490.111 117 489.885 117.125C489.661 117.249 489.485 117.431 489.355 117.669C489.226 117.908 489.161 118.198 489.161 118.538Z" fill="black"/>
<path d="M497.083 116.206V116.968H494.05V116.206H497.083ZM494.934 114.804H495.833V120.382C495.833 120.636 495.87 120.827 495.944 120.954C496.02 121.078 496.117 121.162 496.234 121.205C496.353 121.246 496.479 121.266 496.611 121.266C496.71 121.266 496.791 121.261 496.855 121.251C496.918 121.238 496.969 121.228 497.007 121.221L497.19 122.028C497.129 122.051 497.044 122.074 496.935 122.097C496.825 122.122 496.687 122.135 496.519 122.135C496.265 122.135 496.016 122.08 495.773 121.971C495.531 121.862 495.331 121.696 495.171 121.472C495.013 121.248 494.934 120.967 494.934 120.626V114.804Z" fill="black"/>
<path d="M500.158 122.196C499.787 122.196 499.451 122.126 499.148 121.986C498.846 121.844 498.606 121.64 498.428 121.373C498.25 121.104 498.162 120.779 498.162 120.398C498.162 120.062 498.228 119.79 498.36 119.582C498.492 119.371 498.668 119.206 498.889 119.087C499.11 118.967 499.354 118.879 499.621 118.82C499.89 118.759 500.161 118.711 500.432 118.675C500.788 118.63 501.076 118.595 501.297 118.572C501.521 118.547 501.683 118.505 501.785 118.447C501.889 118.388 501.941 118.287 501.941 118.142V118.111C501.941 117.736 501.838 117.443 501.633 117.235C501.429 117.027 501.121 116.923 500.707 116.923C500.277 116.923 499.941 117.017 499.697 117.205C499.453 117.393 499.282 117.593 499.183 117.807L498.329 117.502C498.482 117.146 498.685 116.869 498.939 116.671C499.195 116.471 499.475 116.331 499.777 116.252C500.082 116.171 500.382 116.13 500.676 116.13C500.864 116.13 501.08 116.153 501.324 116.199C501.57 116.242 501.808 116.332 502.036 116.469C502.268 116.606 502.459 116.813 502.612 117.09C502.764 117.367 502.84 117.738 502.84 118.203V122.059H501.941V121.266H501.895C501.835 121.393 501.733 121.529 501.591 121.674C501.448 121.819 501.259 121.942 501.023 122.044C500.787 122.145 500.498 122.196 500.158 122.196ZM500.295 121.388C500.651 121.388 500.951 121.318 501.194 121.179C501.441 121.039 501.626 120.859 501.751 120.638C501.878 120.417 501.941 120.184 501.941 119.94V119.117C501.903 119.163 501.819 119.205 501.69 119.243C501.563 119.279 501.415 119.31 501.248 119.338C501.083 119.364 500.921 119.387 500.764 119.407C500.609 119.425 500.483 119.44 500.387 119.453C500.153 119.483 499.935 119.533 499.731 119.601C499.531 119.667 499.368 119.768 499.244 119.902C499.122 120.034 499.061 120.215 499.061 120.443C499.061 120.756 499.176 120.992 499.407 121.152C499.641 121.309 499.937 121.388 500.295 121.388Z" fill="black"/>
<path d="M504.482 122.059V116.206H505.381V122.059H504.482ZM504.939 115.231C504.764 115.231 504.612 115.171 504.485 115.052C504.361 114.933 504.299 114.789 504.299 114.621C504.299 114.454 504.361 114.31 504.485 114.191C504.612 114.071 504.764 114.012 504.939 114.012C505.114 114.012 505.264 114.071 505.388 114.191C505.515 114.31 505.579 114.454 505.579 114.621C505.579 114.789 505.515 114.933 505.388 115.052C505.264 115.171 505.114 115.231 504.939 115.231Z" fill="black"/>
<path d="M507.927 118.538V122.059H507.028V116.206H507.896V117.121H507.973C508.11 116.824 508.318 116.585 508.598 116.404C508.877 116.222 509.238 116.13 509.68 116.13C510.076 116.13 510.423 116.211 510.72 116.374C511.017 116.534 511.248 116.778 511.413 117.106C511.578 117.431 511.661 117.842 511.661 118.34V122.059H510.762V118.401C510.762 117.941 510.642 117.583 510.404 117.327C510.165 117.067 509.837 116.938 509.421 116.938C509.133 116.938 508.877 117 508.651 117.125C508.427 117.249 508.251 117.431 508.121 117.669C507.992 117.908 507.927 118.198 507.927 118.538Z" fill="black"/>
<path d="M515.758 122.181C515.194 122.181 514.707 122.056 514.298 121.807C513.892 121.556 513.578 121.205 513.357 120.756C513.139 120.304 513.03 119.778 513.03 119.178C513.03 118.579 513.139 118.05 513.357 117.593C513.578 117.134 513.886 116.775 514.279 116.519C514.676 116.26 515.138 116.13 515.666 116.13C515.971 116.13 516.272 116.181 516.569 116.283C516.867 116.384 517.137 116.549 517.381 116.778C517.625 117.004 517.819 117.304 517.964 117.677C518.109 118.05 518.181 118.51 518.181 119.056V119.437H513.67V118.66H517.267C517.267 118.33 517.201 118.035 517.068 117.776C516.939 117.517 516.754 117.313 516.512 117.163C516.273 117.013 515.991 116.938 515.666 116.938C515.308 116.938 514.998 117.027 514.737 117.205C514.478 117.38 514.278 117.609 514.138 117.89C513.999 118.172 513.929 118.475 513.929 118.797V119.315C513.929 119.757 514.005 120.132 514.158 120.439C514.312 120.744 514.527 120.977 514.801 121.137C515.076 121.294 515.395 121.373 515.758 121.373C515.994 121.373 516.207 121.34 516.398 121.274C516.591 121.205 516.757 121.104 516.897 120.969C517.037 120.832 517.145 120.662 517.221 120.459L518.09 120.702C517.998 120.997 517.844 121.256 517.629 121.48C517.413 121.701 517.146 121.873 516.828 121.998C516.511 122.12 516.154 122.181 515.758 122.181Z" fill="black"/>
<path d="M519.549 122.059V116.206H520.418V117.09H520.479C520.585 116.801 520.778 116.566 521.058 116.385C521.337 116.205 521.652 116.115 522.003 116.115C522.069 116.115 522.151 116.116 522.25 116.119C522.349 116.121 522.424 116.125 522.475 116.13V117.045C522.445 117.037 522.375 117.026 522.266 117.01C522.159 116.993 522.046 116.984 521.926 116.984C521.642 116.984 521.388 117.043 521.164 117.163C520.943 117.28 520.768 117.442 520.639 117.65C520.512 117.856 520.448 118.091 520.448 118.355V122.059H519.549Z" fill="black"/>
<path d="M383.354 249.354C383.549 249.158 383.549 248.842 383.354 248.646L380.172 245.464C379.976 245.269 379.66 245.269 379.464 245.464C379.269 245.66 379.269 245.976 379.464 246.172L382.293 249L379.464 251.828C379.269 252.024 379.269 252.34 379.464 252.536C379.66 252.731 379.976 252.731 380.172 252.536L383.354 249.354ZM352 249.5L383 249.5L383 248.5L352 248.5L352 249.5Z" fill="black"/>
<path d="M288.436 288.214H287.465L290.273 280.566H291.229L294.037 288.214H293.067L290.781 281.776H290.721L288.436 288.214ZM288.794 285.226H292.708V286.048H288.794V285.226Z" fill="black"/>
<path d="M295.109 288.214V282.478H295.961V283.374H296.035C296.155 283.068 296.348 282.83 296.614 282.661C296.88 282.489 297.2 282.403 297.574 282.403C297.952 282.403 298.267 282.489 298.519 282.661C298.772 282.83 298.97 283.068 299.112 283.374H299.172C299.319 283.078 299.539 282.843 299.833 282.668C300.127 282.492 300.479 282.403 300.89 282.403C301.403 282.403 301.822 282.564 302.148 282.885C302.474 283.204 302.637 283.7 302.637 284.375V288.214H301.756V284.375C301.756 283.952 301.64 283.649 301.409 283.468C301.177 283.286 300.905 283.195 300.591 283.195C300.188 283.195 299.875 283.317 299.654 283.561C299.432 283.802 299.321 284.109 299.321 284.48V288.214H298.425V284.285C298.425 283.959 298.319 283.697 298.108 283.497C297.896 283.296 297.624 283.195 297.29 283.195C297.061 283.195 296.847 283.256 296.648 283.378C296.451 283.5 296.292 283.669 296.17 283.886C296.05 284.1 295.99 284.348 295.99 284.629V288.214H295.109Z" fill="black"/>
<path d="M305.937 288.348C305.573 288.348 305.243 288.28 304.947 288.143C304.651 288.003 304.416 287.803 304.241 287.542C304.067 287.278 303.98 286.959 303.98 286.586C303.98 286.257 304.045 285.991 304.174 285.787C304.304 285.58 304.477 285.418 304.693 285.301C304.91 285.184 305.149 285.097 305.41 285.04C305.674 284.98 305.939 284.933 306.206 284.898C306.554 284.853 306.837 284.819 307.053 284.797C307.272 284.772 307.432 284.731 307.531 284.674C307.633 284.616 307.684 284.517 307.684 284.375V284.345C307.684 283.977 307.584 283.69 307.382 283.486C307.183 283.282 306.88 283.18 306.474 283.18C306.054 283.18 305.724 283.272 305.485 283.456C305.246 283.641 305.078 283.837 304.981 284.046L304.144 283.748C304.294 283.399 304.493 283.128 304.742 282.934C304.993 282.737 305.267 282.6 305.563 282.523C305.862 282.443 306.156 282.403 306.445 282.403C306.629 282.403 306.84 282.426 307.079 282.471C307.321 282.513 307.554 282.601 307.778 282.736C308.004 282.87 308.192 283.073 308.342 283.344C308.491 283.616 308.566 283.979 308.566 284.435V288.214H307.684V287.437H307.64C307.58 287.562 307.48 287.695 307.341 287.837C307.201 287.979 307.016 288.099 306.784 288.199C306.553 288.298 306.27 288.348 305.937 288.348ZM306.071 287.557C306.42 287.557 306.713 287.488 306.952 287.351C307.194 287.214 307.376 287.038 307.498 286.821C307.622 286.604 307.684 286.377 307.684 286.138V285.331C307.647 285.376 307.565 285.417 307.438 285.454C307.313 285.489 307.169 285.52 307.005 285.548C306.843 285.572 306.685 285.595 306.53 285.615C306.379 285.632 306.255 285.647 306.161 285.66C305.932 285.689 305.718 285.738 305.518 285.805C305.322 285.87 305.162 285.968 305.04 286.1C304.921 286.23 304.861 286.406 304.861 286.631C304.861 286.937 304.974 287.168 305.201 287.325C305.43 287.479 305.72 287.557 306.071 287.557Z" fill="black"/>
<path d="M310.01 288.214V287.542L313.266 283.359V283.3H310.114V282.478H314.401V283.18L311.235 287.333V287.392H314.506V288.214H310.01Z" fill="black"/>
<path d="M318.029 288.333C317.511 288.333 317.057 288.21 316.666 287.964C316.278 287.717 315.974 287.372 315.755 286.929C315.538 286.486 315.43 285.968 315.43 285.376C315.43 284.778 315.538 284.257 315.755 283.811C315.974 283.366 316.278 283.019 316.666 282.773C317.057 282.527 317.511 282.403 318.029 282.403C318.547 282.403 319 282.527 319.388 282.773C319.779 283.019 320.083 283.366 320.3 283.811C320.519 284.257 320.628 284.778 320.628 285.376C320.628 285.968 320.519 286.486 320.3 286.929C320.083 287.372 319.779 287.717 319.388 287.964C319 288.21 318.547 288.333 318.029 288.333ZM318.029 287.542C318.423 287.542 318.746 287.441 319 287.239C319.254 287.038 319.442 286.772 319.564 286.444C319.686 286.115 319.747 285.759 319.747 285.376C319.747 284.992 319.686 284.635 319.564 284.304C319.442 283.973 319.254 283.705 319 283.501C318.746 283.297 318.423 283.195 318.029 283.195C317.636 283.195 317.312 283.297 317.058 283.501C316.804 283.705 316.616 283.973 316.494 284.304C316.372 284.635 316.311 284.992 316.311 285.376C316.311 285.759 316.372 286.115 316.494 286.444C316.616 286.772 316.804 287.038 317.058 287.239C317.312 287.441 317.636 287.542 318.029 287.542Z" fill="black"/>
<path d="M322.855 284.763V288.214H321.974V282.478H322.825V283.374H322.9C323.034 283.083 323.238 282.849 323.512 282.672C323.786 282.493 324.139 282.403 324.573 282.403C324.961 282.403 325.301 282.483 325.592 282.642C325.883 282.799 326.11 283.038 326.272 283.359C326.434 283.678 326.514 284.081 326.514 284.569V288.214H325.633V284.629C325.633 284.178 325.516 283.827 325.282 283.576C325.048 283.322 324.727 283.195 324.319 283.195C324.037 283.195 323.786 283.256 323.564 283.378C323.345 283.5 323.172 283.678 323.045 283.912C322.918 284.146 322.855 284.43 322.855 284.763Z" fill="black"/>
<path d="M331.202 288.214V280.566H335.817V281.388H332.128V283.972H335.578V284.793H332.128V287.392H335.877V288.214H331.202Z" fill="black"/>
<path d="M343.641 282.956H342.715C342.66 282.69 342.564 282.456 342.427 282.254C342.293 282.052 342.128 281.883 341.934 281.746C341.742 281.607 341.53 281.502 341.296 281.432C341.062 281.363 340.818 281.328 340.564 281.328C340.101 281.328 339.681 281.445 339.305 281.679C338.932 281.913 338.634 282.258 338.413 282.713C338.194 283.169 338.084 283.728 338.084 284.39C338.084 285.052 338.194 285.611 338.413 286.067C338.634 286.522 338.932 286.867 339.305 287.101C339.681 287.335 340.101 287.452 340.564 287.452C340.818 287.452 341.062 287.417 341.296 287.347C341.53 287.278 341.742 287.174 341.934 287.038C342.128 286.898 342.293 286.728 342.427 286.526C342.564 286.322 342.66 286.088 342.715 285.824H343.641C343.571 286.215 343.444 286.565 343.26 286.873C343.076 287.182 342.847 287.445 342.573 287.661C342.299 287.875 341.991 288.038 341.65 288.15C341.312 288.262 340.95 288.318 340.564 288.318C339.911 288.318 339.331 288.159 338.824 287.84C338.316 287.522 337.916 287.069 337.625 286.481C337.334 285.894 337.188 285.197 337.188 284.39C337.188 283.583 337.334 282.886 337.625 282.299C337.916 281.711 338.316 281.258 338.824 280.939C339.331 280.621 339.911 280.461 340.564 280.461C340.95 280.461 341.312 280.518 341.65 280.63C341.991 280.742 342.299 280.906 342.573 281.122C342.847 281.337 343.076 281.598 343.26 281.907C343.444 282.213 343.571 282.563 343.641 282.956Z" fill="black"/>
<path d="M349.32 282.478C349.275 282.1 349.093 281.806 348.774 281.597C348.456 281.388 348.065 281.283 347.602 281.283C347.263 281.283 346.967 281.338 346.713 281.447C346.462 281.557 346.265 281.707 346.123 281.899C345.984 282.091 345.914 282.309 345.914 282.553C345.914 282.757 345.963 282.932 346.06 283.079C346.159 283.224 346.286 283.344 346.441 283.441C346.595 283.536 346.757 283.614 346.926 283.677C347.095 283.736 347.251 283.785 347.393 283.822L348.169 284.031C348.369 284.084 348.59 284.156 348.834 284.248C349.081 284.34 349.316 284.466 349.54 284.625C349.767 284.782 349.953 284.984 350.1 285.23C350.247 285.477 350.32 285.779 350.32 286.138C350.32 286.551 350.212 286.924 349.996 287.258C349.781 287.591 349.468 287.857 349.055 288.053C348.644 288.25 348.145 288.348 347.557 288.348C347.009 288.348 346.535 288.26 346.134 288.083C345.736 287.906 345.422 287.66 345.193 287.344C344.967 287.028 344.839 286.66 344.809 286.242H345.765C345.79 286.531 345.887 286.77 346.056 286.959C346.228 287.146 346.444 287.285 346.706 287.377C346.97 287.467 347.253 287.512 347.557 287.512C347.911 287.512 348.228 287.455 348.509 287.34C348.791 287.223 349.013 287.061 349.178 286.855C349.342 286.645 349.424 286.401 349.424 286.123C349.424 285.869 349.353 285.662 349.211 285.503C349.069 285.343 348.883 285.214 348.651 285.114C348.42 285.015 348.169 284.928 347.901 284.853L346.96 284.584C346.362 284.412 345.889 284.167 345.541 283.848C345.192 283.53 345.018 283.113 345.018 282.597C345.018 282.169 345.134 281.796 345.365 281.477C345.599 281.156 345.913 280.907 346.306 280.73C346.702 280.551 347.144 280.461 347.632 280.461C348.125 280.461 348.563 280.55 348.946 280.727C349.33 280.901 349.633 281.14 349.857 281.444C350.084 281.747 350.203 282.092 350.216 282.478H349.32Z" fill="black"/>
<g filter="url(#filter1_d_16_101)">
<path d="M342 224H296C294.895 224 294 224.895 294 226V272C294 273.105 294.895 274 296 274H342C343.105 274 344 273.105 344 272V226C344 224.895 343.105 224 342 224Z" fill="#D86613"/>
</g>
<path d="M318.86 266.96C318.736 266.962 318.613 266.93 318.507 266.867L303.333 258.12C303.226 258.058 303.136 257.968 303.074 257.861C303.012 257.753 302.98 257.631 302.98 257.507V239.787C302.98 239.662 303.012 239.54 303.074 239.433C303.136 239.325 303.226 239.235 303.333 239.173L317.287 231.133C317.39 231.061 317.512 231.019 317.639 231.014C317.765 231.008 317.891 231.038 318 231.101C318.11 231.164 318.2 231.257 318.259 231.369C318.318 231.481 318.344 231.607 318.333 231.733V239.407C318.333 239.526 318.302 239.643 318.244 239.747C318.185 239.85 318.101 239.938 318 240L311.02 244V253.293L318.88 257.833L325.753 253.833C325.855 253.775 325.97 253.744 326.087 253.744C326.204 253.744 326.319 253.775 326.42 253.833L333.033 257.633C333.141 257.695 333.23 257.785 333.292 257.893C333.354 258 333.387 258.122 333.387 258.247C333.39 258.371 333.359 258.493 333.296 258.6C333.234 258.707 333.143 258.795 333.033 258.853L319.2 266.853C319.098 266.919 318.981 266.956 318.86 266.96ZM304.333 257.027L319.22 265.62L332 258.233L326.667 255.16L319.58 259.253C319.469 259.316 319.344 259.349 319.217 259.349C319.089 259.349 318.964 259.316 318.853 259.253L310 254.147C309.893 254.086 309.804 253.997 309.742 253.891C309.68 253.784 309.647 253.663 309.647 253.54V243.64C309.643 243.516 309.675 243.394 309.737 243.286C309.799 243.179 309.89 243.092 310 243.033L316.98 239.033V232.913L304.313 240.247L304.333 257.027Z" fill="white"/>
<path d="M334.293 256.667C334.17 256.665 334.048 256.633 333.94 256.573L327.333 252.753C327.224 252.695 327.133 252.607 327.07 252.5C327.008 252.393 326.977 252.271 326.98 252.147V244.073L320 240.047C319.893 239.986 319.804 239.897 319.742 239.791C319.68 239.684 319.647 239.563 319.647 239.44V231.767C319.644 231.644 319.675 231.524 319.736 231.418C319.797 231.312 319.886 231.225 319.993 231.167C320.095 231.108 320.21 231.077 320.327 231.077C320.444 231.077 320.559 231.108 320.66 231.167L334.667 239.213C334.774 239.274 334.863 239.363 334.925 239.469C334.987 239.576 335.02 239.697 335.02 239.82V255.933C335.02 256.058 334.988 256.18 334.926 256.287C334.864 256.395 334.774 256.485 334.667 256.547C334.555 256.62 334.426 256.661 334.293 256.667ZM328.333 251.7L333.667 254.767V240.267L321 232.933V239.02L328 243.073C328.109 243.132 328.201 243.219 328.263 243.326C328.325 243.434 328.357 243.556 328.353 243.68L328.333 251.7Z" fill="white"/>
<g filter="url(#filter2_d_16_101)">
<path d="M503 141H458C456.895 141 456 141.895 456 143V188C456 189.105 456.895 190 458 190H503C504.105 190 505 189.105 505 188V143C505 141.895 504.105 141 503 141Z" fill="#D86613"/>
</g>
<path d="M495.52 167.46H492.253V166.153H495.52V150.473H479.84V153.74H478.533V150.473C478.533 150.127 478.671 149.794 478.916 149.549C479.161 149.304 479.494 149.167 479.84 149.167H495.52C495.867 149.167 496.199 149.304 496.444 149.549C496.689 149.794 496.827 150.127 496.827 150.473V166.153C496.827 166.5 496.689 166.832 496.444 167.077C496.199 167.322 495.867 167.46 495.52 167.46Z" fill="white"/>
<path d="M481.147 181.833H465.467C465.12 181.833 464.788 181.696 464.543 181.451C464.298 181.206 464.16 180.873 464.16 180.527V164.847C464.16 164.5 464.298 164.168 464.543 163.923C464.788 163.678 465.12 163.54 465.467 163.54H468.733V164.847H465.467V180.527H481.147V177.26H482.453V180.527C482.453 180.873 482.316 181.206 482.071 181.451C481.826 181.696 481.493 181.833 481.147 181.833Z" fill="white"/>
<path d="M490.953 159.62V158.313H488.993C488.966 157.976 488.82 157.659 488.581 157.419C488.341 157.18 488.024 157.034 487.687 157.007V155.047H486.38V157.007H484.42V155.047H483.113V157.007H481.153V155.047H479.847V157.007H477.887V155.047H476.58V157.007H474.62V155.047H473.313V157.007C472.976 157.034 472.659 157.18 472.419 157.419C472.18 157.659 472.033 157.976 472.007 158.313H470.047V159.62H472.007V161.58H470.047V162.887H472.007V164.847H470.047V166.153H472.007V168.113H470.047V169.42H472.007V171.38H470.047V172.687H472.007C472.033 173.024 472.18 173.341 472.419 173.581C472.659 173.82 472.976 173.966 473.313 173.993V175.953H474.62V173.993H476.58V175.953H477.887V173.993H479.847V175.953H481.153V173.993H483.113V175.953H484.42V173.993H486.38V175.953H487.687V173.993C488.024 173.966 488.341 173.82 488.581 173.581C488.82 173.341 488.966 173.024 488.993 172.687H490.953V171.38H488.993V169.42H490.953V168.113H488.993V166.153H490.953V164.847H488.993V162.887H490.953V161.58H488.993V159.62H490.953ZM487.687 172.569C487.687 172.6 487.674 172.63 487.652 172.652C487.63 172.674 487.6 172.687 487.569 172.687H473.431C473.4 172.687 473.37 172.674 473.348 172.652C473.326 172.63 473.313 172.6 473.313 172.569V158.431C473.313 158.4 473.326 158.37 473.348 158.348C473.37 158.326 473.4 158.313 473.431 158.313H487.569C487.6 158.313 487.63 158.326 487.652 158.348C487.674 158.37 487.687 158.4 487.687 158.431V172.569Z" fill="white"/>
<g filter="url(#filter3_d_16_101)">
<path d="M503 223H458C456.895 223 456 223.895 456 225V270C456 271.105 456.895 272 458 272H503C504.105 272 505 271.105 505 270V225C505 223.895 504.105 223 503 223Z" fill="#D86613"/>
</g>
<path d="M495.52 249.46H492.253V248.153H495.52V232.473H479.84V235.74H478.533V232.473C478.533 232.127 478.671 231.794 478.916 231.549C479.161 231.304 479.494 231.167 479.84 231.167H495.52C495.867 231.167 496.199 231.304 496.444 231.549C496.689 231.794 496.827 232.127 496.827 232.473V248.153C496.827 248.5 496.689 248.832 496.444 249.077C496.199 249.322 495.867 249.46 495.52 249.46Z" fill="white"/>
<path d="M481.147 263.833H465.467C465.12 263.833 464.788 263.696 464.543 263.451C464.298 263.206 464.16 262.873 464.16 262.527V246.847C464.16 246.5 464.298 246.168 464.543 245.923C464.788 245.678 465.12 245.54 465.467 245.54H468.733V246.847H465.467V262.527H481.147V259.26H482.453V262.527C482.453 262.873 482.316 263.206 482.071 263.451C481.826 263.696 481.493 263.833 481.147 263.833Z" fill="white"/>
<path d="M490.953 241.62V240.313H488.993C488.966 239.976 488.82 239.659 488.581 239.419C488.341 239.18 488.024 239.034 487.687 239.007V237.047H486.38V239.007H484.42V237.047H483.113V239.007H481.153V237.047H479.847V239.007H477.887V237.047H476.58V239.007H474.62V237.047H473.313V239.007C472.976 239.034 472.659 239.18 472.419 239.419C472.18 239.659 472.033 239.976 472.007 240.313H470.047V241.62H472.007V243.58H470.047V244.887H472.007V246.847H470.047V248.153H472.007V250.113H470.047V251.42H472.007V253.38H470.047V254.687H472.007C472.033 255.024 472.18 255.341 472.419 255.581C472.659 255.82 472.976 255.966 473.313 255.993V257.953H474.62V255.993H476.58V257.953H477.887V255.993H479.847V257.953H481.153V255.993H483.113V257.953H484.42V255.993H486.38V257.953H487.687V255.993C488.024 255.966 488.341 255.82 488.581 255.581C488.82 255.341 488.966 255.024 488.993 254.687H490.953V253.38H488.993V251.42H490.953V250.113H488.993V248.153H490.953V246.847H488.993V244.887H490.953V243.58H488.993V241.62H490.953ZM487.687 254.569C487.687 254.6 487.674 254.63 487.652 254.652C487.63 254.674 487.6 254.687 487.569 254.687H473.431C473.4 254.687 473.37 254.674 473.348 254.652C473.326 254.63 473.313 254.6 473.313 254.569V240.431C473.313 240.4 473.326 240.37 473.348 240.348C473.37 240.326 473.4 240.313 473.431 240.313H487.569C487.6 240.313 487.63 240.326 487.652 240.348C487.674 240.37 487.687 240.4 487.687 240.431V254.569Z" fill="white"/>
<g filter="url(#filter4_d_16_101)">
<path d="M503 306H458C456.895 306 456 306.895 456 308V353C456 354.105 456.895 355 458 355H503C504.105 355 505 354.105 505 353V308C505 306.895 504.105 306 503 306Z" fill="#D86613"/>
</g>
<path d="M495.52 332.46H492.253V331.153H495.52V315.473H479.84V318.74H478.533V315.473C478.533 315.127 478.671 314.794 478.916 314.549C479.161 314.304 479.494 314.167 479.84 314.167H495.52C495.867 314.167 496.199 314.304 496.444 314.549C496.689 314.794 496.827 315.127 496.827 315.473V331.153C496.827 331.5 496.689 331.832 496.444 332.077C496.199 332.322 495.867 332.46 495.52 332.46Z" fill="white"/>
<path d="M481.147 346.833H465.467C465.12 346.833 464.788 346.696 464.543 346.451C464.298 346.206 464.16 345.873 464.16 345.527V329.847C464.16 329.5 464.298 329.168 464.543 328.923C464.788 328.678 465.12 328.54 465.467 328.54H468.733V329.847H465.467V345.527H481.147V342.26H482.453V345.527C482.453 345.873 482.316 346.206 482.071 346.451C481.826 346.696 481.493 346.833 481.147 346.833Z" fill="white"/>
<path d="M490.953 324.62V323.313H488.993C488.966 322.976 488.82 322.659 488.581 322.419C488.341 322.18 488.024 322.034 487.687 322.007V320.047H486.38V322.007H484.42V320.047H483.113V322.007H481.153V320.047H479.847V322.007H477.887V320.047H476.58V322.007H474.62V320.047H473.313V322.007C472.976 322.034 472.659 322.18 472.419 322.419C472.18 322.659 472.033 322.976 472.007 323.313H470.047V324.62H472.007V326.58H470.047V327.887H472.007V329.847H470.047V331.153H472.007V333.113H470.047V334.42H472.007V336.38H470.047V337.687H472.007C472.033 338.024 472.18 338.341 472.419 338.581C472.659 338.82 472.976 338.966 473.313 338.993V340.953H474.62V338.993H476.58V340.953H477.887V338.993H479.847V340.953H481.153V338.993H483.113V340.953H484.42V338.993H486.38V340.953H487.687V338.993C488.024 338.966 488.341 338.82 488.581 338.581C488.82 338.341 488.966 338.024 488.993 337.687H490.953V336.38H488.993V334.42H490.953V333.113H488.993V331.153H490.953V329.847H488.993V327.887H490.953V326.58H488.993V324.62H490.953ZM487.687 337.569C487.687 337.6 487.674 337.63 487.652 337.652C487.63 337.674 487.6 337.687 487.569 337.687H473.431C473.4 337.687 473.37 337.674 473.348 337.652C473.326 337.63 473.313 337.6 473.313 337.569V323.431C473.313 323.4 473.326 323.37 473.348 323.348C473.37 323.326 473.4 323.313 473.431 323.313H487.569C487.6 323.313 487.63 323.326 487.652 323.348C487.674 323.37 487.687 323.4 487.687 323.431V337.569Z" fill="white"/>
</g>
<defs>
<filter id="filter0_d_16_101" x="276.224" y="465.471" width="89.7177" height="70.9412" filterUnits="userSpaceOnUse" color-interpolation-filters="sRGB">
<feFlood flood-opacity="0" result="BackgroundImageFix"/>
<feColorMatrix in="SourceAlpha" type="matrix" values="0 0 0 0 0 0 0 0 0 0 0 0 0 0 0 0 0 0 127 0" result="hardAlpha"/>
<feOffset/>
<feGaussianBlur stdDeviation="6"/>
<feComposite in2="hardAlpha" operator="out"/>
<feColorMatrix type="matrix" values="0 0 0 0 0 0 0 0 0 0 0 0 0 0 0 0 0 0 0.33 0"/>
<feBlend mode="normal" in2="BackgroundImageFix" result="effect1_dropShadow_16_101"/>
<feBlend mode="normal" in="SourceGraphic" in2="effect1_dropShadow_16_101" result="shape"/>
</filter>
<filter id="filter1_d_16_101" x="282" y="212" width="74" height="74" filterUnits="userSpaceOnUse" color-interpolation-filters="sRGB">
<feFlood flood-opacity="0" result="BackgroundImageFix"/>
<feColorMatrix in="SourceAlpha" type="matrix" values="0 0 0 0 0 0 0 0 0 0 0 0 0 0 0 0 0 0 127 0" result="hardAlpha"/>
<feOffset/>
<feGaussianBlur stdDeviation="6"/>
<feComposite in2="hardAlpha" operator="out"/>
<feColorMatrix type="matrix" values="0 0 0 0 0 0 0 0 0 0 0 0 0 0 0 0 0 0 0.33 0"/>
<feBlend mode="normal" in2="BackgroundImageFix" result="effect1_dropShadow_16_101"/>
<feBlend mode="normal" in="SourceGraphic" in2="effect1_dropShadow_16_101" result="shape"/>
</filter>
<filter id="filter2_d_16_101" x="444" y="129" width="73" height="73" filterUnits="userSpaceOnUse" color-interpolation-filters="sRGB">
<feFlood flood-opacity="0" result="BackgroundImageFix"/>
<feColorMatrix in="SourceAlpha" type="matrix" values="0 0 0 0 0 0 0 0 0 0 0 0 0 0 0 0 0 0 127 0" result="hardAlpha"/>
<feOffset/>
<feGaussianBlur stdDeviation="6"/>
<feComposite in2="hardAlpha" operator="out"/>
<feColorMatrix type="matrix" values="0 0 0 0 0 0 0 0 0 0 0 0 0 0 0 0 0 0 0.33 0"/>
<feBlend mode="normal" in2="BackgroundImageFix" result="effect1_dropShadow_16_101"/>
<feBlend mode="normal" in="SourceGraphic" in2="effect1_dropShadow_16_101" result="shape"/>
</filter>
<filter id="filter3_d_16_101" x="444" y="211" width="73" height="73" filterUnits="userSpaceOnUse" color-interpolation-filters="sRGB">
<feFlood flood-opacity="0" result="BackgroundImageFix"/>
<feColorMatrix in="SourceAlpha" type="matrix" values="0 0 0 0 0 0 0 0 0 0 0 0 0 0 0 0 0 0 127 0" result="hardAlpha"/>
<feOffset/>
<feGaussianBlur stdDeviation="6"/>
<feComposite in2="hardAlpha" operator="out"/>
<feColorMatrix type="matrix" values="0 0 0 0 0 0 0 0 0 0 0 0 0 0 0 0 0 0 0.33 0"/>
<feBlend mode="normal" in2="BackgroundImageFix" result="effect1_dropShadow_16_101"/>
<feBlend mode="normal" in="SourceGraphic" in2="effect1_dropShadow_16_101" result="shape"/>
</filter>
<filter id="filter4_d_16_101" x="444" y="294" width="73" height="73" filterUnits="userSpaceOnUse" color-interpolation-filters="sRGB">
<feFlood flood-opacity="0" result="BackgroundImageFix"/>
<feColorMatrix in="SourceAlpha" type="matrix" values="0 0 0 0 0 0 0 0 0 0 0 0 0 0 0 0 0 0 127 0" result="hardAlpha"/>
<feOffset/>
<feGaussianBlur stdDeviation="6"/>
<feComposite in2="hardAlpha" operator="out"/>
<feColorMatrix type="matrix" values="0 0 0 0 0 0 0 0 0 0 0 0 0 0 0 0 0 0 0.33 0"/>
<feBlend mode="normal" in2="BackgroundImageFix" result="effect1_dropShadow_16_101"/>
<feBlend mode="normal" in="SourceGraphic" in2="effect1_dropShadow_16_101" result="shape"/>
</filter>
<clipPath id="clip0_16_101">
<rect width="595" height="842" fill="white" transform="matrix(0 -1 -1 0 842 595)"/>
</clipPath>
<clipPath id="clip1_16_101">
<rect x="388.812" y="101.941" width="32.1882" height="32.1882" rx="1" fill="white"/>
</clipPath>
</defs>
</svg>
